<svg xmlns="http://www.w3.org/2000/svg" viewBox="0 0 1044.71 1179.32"><defs><style>.cls-1{fill:none;}.cls-1,.cls-3{stroke:#fff;stroke-miterlimit:10;stroke-width:3px;}.cls-2,.cls-3{fill:#fff;}</style></defs><g id="Vrstva_2" data-name="Vrstva 2"><g id="Vrstva_1-2" data-name="Vrstva 1"><path class="cls-1" d="M210.29,807.3C181.9,747.81,162.9,683.81,167.9,617.81c6-75,35-147,83.59-203.94"/><path class="cls-1" d="M252.34,867.2c-15.85-19.16-31.33-39-42.83-61.52"/><path class="cls-1" d="M844.94,774.54c-8.7,15.28-15.58,31.64-24.64,46.69a415,415,0,0,1-29,42.7"/><path class="cls-1" d="M794.56,419.19a391.65,391.65,0,0,1,38.54,60.12,365.19,365.19,0,0,1,26.45,66,341.78,341.78,0,0,1,12.71,70.22A349.15,349.15,0,0,1,869,691.73a308.37,308.37,0,0,1-20.48,74.6q-1.9,4.5-3.94,8.93"/><path class="cls-2" d="M187.89,741.42c.32-11.56,11.18-18.8,18.08-26.69s10.72-17.79,12.3-28.06a97,97,0,0,0,1-17.53,1.51,1.51,0,0,0-2.26-1.3c-4.79,3.41-9.78,6.64-14.34,10.36-4.36,3.55-7.45,8.17-10.25,13-5.5,9.52-9.82,20-11.4,31-.85,5.92-.73,12.13,2.31,17.45a1.5,1.5,0,0,0,2.59-1.51c-2.51-4.4-2.69-9.57-2.09-14.49a71.41,71.41,0,0,1,3.79-15.17,95.16,95.16,0,0,1,6.62-14.4c2.55-4.54,5.29-9.1,9.2-12.6a80.7,80.7,0,0,1,7.26-5.48l7.83-5.56-2.26-1.29c.3,10.35-.69,20.91-4.57,30.6a45,45,0,0,1-8.29,13.37c-3.75,4.2-8.09,7.84-11.65,12.21-3.76,4.62-6.69,10-6.86,16.1,0,1.93,3,1.92,3,0Z"/><path class="cls-2" d="M181.19,726c-2.24-3.36-4.37-6.82-6.79-10.06s-5.23-5.32-8.32-7.61c-5.94-4.4-11.66-9.39-15.73-15.62a34.48,34.48,0,0,1-4.84-11.1c-.42-1.75-2.79-1.18-2.95.4a150.35,150.35,0,0,0-.93,17.36,29.06,29.06,0,0,0,3.91,14.89,71.61,71.61,0,0,0,9.21,11.62c3.43,3.65,7.35,6.42,12.33,7.43s11.46.71,15.16,5.07c1.25,1.48,3.37-.65,2.12-2.12-3-3.51-7.6-4.54-12-5.15a34.53,34.53,0,0,1-7.81-1.61,18.27,18.27,0,0,1-5.72-3.74,68.47,68.47,0,0,1-9.36-10.89,25.73,25.73,0,0,1-4.85-14.12,131.93,131.93,0,0,1,.89-18.74l-2.95.4c1.67,7.15,5.69,13.49,10.69,18.79a73.87,73.87,0,0,0,8.33,7.48c3.05,2.39,6.47,4.46,9.05,7.38,3,3.45,5.38,7.64,7.92,11.45,1.07,1.6,3.67.1,2.59-1.51Z"/><path class="cls-2" d="M171.77,669.23c4.71-2,8.71-5,12.62-8.25a53.72,53.72,0,0,0,10.29-10.9,45.25,45.25,0,0,0,6.09-12.94c1.46-5,1.7-10.2,2.14-15.39.46-5.38,1.49-11.13,5.42-15.14a1.51,1.51,0,0,0-.3-2.36c-2.33-1.08-4.28,1.45-5.88,2.84-2,1.74-4,3.52-5.89,5.4s-3.48,3.77-5.13,5.76a44.4,44.4,0,0,1-5.58,5.3c-7.13,6.11-12.59,14.44-14.11,23.8-1,6.18-1,12.56-1.4,18.8-.11,1.93,2.89,1.92,3,0,.56-9.55.16-19.64,4.75-28.33a40.75,40.75,0,0,1,7.64-10.1c1.61-1.58,3.4-3,5.08-4.46a57.34,57.34,0,0,0,4.76-5.32,72.15,72.15,0,0,1,5.75-5.85q1.44-1.3,2.91-2.58l1.55-1.34.7-.59c.31-.28.94-.46.34-.74l-.31-2.36c-7.34,7.5-5.59,18.43-7.38,27.87a43.35,43.35,0,0,1-14,24.3c-4.15,3.7-8.68,7.54-13.87,9.69-1.76.73-1,3.63.8,2.89Z"/><path class="cls-2" d="M168.68,654.58a44.87,44.87,0,0,0-7.29-27.3c-2.78-4.2-6-8-8.31-12.47a75,75,0,0,1-5.22-13.74c-1.5-5.31-2.62-10.71-3.73-16.11a1.51,1.51,0,0,0-2.89,0,133.7,133.7,0,0,0-4.48,36.64A31.14,31.14,0,0,0,138,630a32.37,32.37,0,0,0,3.93,7.87,74.39,74.39,0,0,0,9.6,12.64,32.11,32.11,0,0,0,7,5.43c2.61,1.47,5.58,2.41,7.83,4.46,1.42,1.3,3.54-.81,2.12-2.12a26.47,26.47,0,0,0-6.61-4,28.48,28.48,0,0,1-6.31-4.1,55.8,55.8,0,0,1-9.64-11.68,50.62,50.62,0,0,1-4.22-7.13,23.71,23.71,0,0,1-1.88-8.39,106.25,106.25,0,0,1,.72-17.38,140.74,140.74,0,0,1,3.6-19.83h-2.89c1.93,9.42,3.93,18.89,7.88,27.71a64.94,64.94,0,0,0,7.57,12.39,44.88,44.88,0,0,1,6.94,12.84,42.6,42.6,0,0,1,2.05,15.89c-.11,1.93,2.89,1.92,3,0Z"/><path class="cls-2" d="M177.6,560.05c4.64-10,1.54-20.83-1.77-30.69a116.76,116.76,0,0,1-4.43-16.14A86.89,86.89,0,0,1,170,496.57c.06-5.85.85-11.8,3.79-16.95l-2.59-1.51a382.64,382.64,0,0,0-15.91,39.49c-2.12,6.36-3.63,13-2.69,19.76a24.77,24.77,0,0,0,3.22,9.21c1.67,2.84,3.74,5.43,5.62,8.14a160.42,160.42,0,0,1,11.68,19.84c.86,1.73,3.45.21,2.59-1.51a161.32,161.32,0,0,0-9.87-17.17c-3.49-5.27-8.23-10.27-9.82-16.53s-.33-13,1.58-19.16c2-6.44,4.49-12.76,7-19q4.31-10.89,9.22-21.53c.79-1.72-1.61-3.22-2.59-1.51-5.26,9.18-4.76,20.93-3.42,31.08a94.24,94.24,0,0,0,3.63,16.27c1.69,5.3,3.71,10.52,4.83,16,1.16,5.64,1.27,11.78-1.2,17.1-.81,1.74,1.78,3.26,2.59,1.51Z"/><path class="cls-2" d="M191.29,523.09c3.31-8.12,6.16-16.63,11.24-23.86a52.9,52.9,0,0,1,7.92-8.86,85.59,85.59,0,0,1,9.1-6.7c3.39-2.32,6.65-4.9,8.73-8.51L225.54,474c-3.24,10.05-4.64,20.57-7.63,30.69-2.67,9.06-7,19.92-16.09,24.32a56.58,56.58,0,0,1-8.83,2.88l-10,3c-1.85.54-1.06,3.44.8,2.89l9.07-2.67c2.86-.84,5.79-1.56,8.57-2.64a25.62,25.62,0,0,0,11.45-9.4c6.28-8.81,8.78-19.75,11.06-30.14,1.33-6.07,2.61-12.16,4.52-18.09a1.51,1.51,0,0,0-2.74-1.16c-1.86,3.22-4.8,5.49-7.82,7.55a92.94,92.94,0,0,0-9.24,6.79,56,56,0,0,0-14.08,19.35c-2.18,4.93-4.12,10-6.15,15-.73,1.79,2.17,2.57,2.89.8Z"/><path class="cls-1" d="M678.33,513.63c19.48-13.31,45.42-16.31,67.33-7.48,20.23,8.14,35.73,26,42,46.79,6.87,22.61,1.9,47.77-12.49,66.44a71.27,71.27,0,0,1-114.58-2.45,69.83,69.83,0,0,1-4.28-6.8"/><path class="cls-1" d="M678.52,513.84c22.41,2,40.67,20,44,42.13,3.39,22.43-8.76,45.11-29.77,54a48.09,48.09,0,0,1-36,.44"/><ellipse class="cls-1" cx="320.39" cy="551.77" rx="15.32" ry="15.83"/><ellipse class="cls-1" cx="400.3" cy="707" rx="15.32" ry="15.83"/><ellipse class="cls-1" cx="546.85" cy="611.51" rx="15.32" ry="15.83"/><ellipse class="cls-3" cx="417.41" cy="579.6" rx="6.18" ry="6.38"/><ellipse class="cls-3" cx="575.96" cy="487.43" rx="6.18" ry="6.38"/><ellipse class="cls-3" cx="537.66" cy="745.81" rx="6.18" ry="6.38"/><ellipse class="cls-3" cx="756.22" cy="723.34" rx="6.18" ry="6.38"/><path class="cls-2" d="M171.21,605.31c2.59-8.14,5.32-16.69,11.33-23,3.07-3.24,6.72-5.83,10.24-8.54a71.92,71.92,0,0,0,9.68-8.86,66.92,66.92,0,0,0,8.56-12l-2.74-1.15c-.85,5.43-.13,10.86-.2,16.32a26.28,26.28,0,0,1-3.85,13.91c-4.83,7.68-13.39,11-21.36,14.35a56.65,56.65,0,0,0-13,7.16c-1.52,1.19.62,3.3,2.12,2.12,7.07-5.53,16.1-7.59,23.82-12,8.26-4.7,14-12.44,15-22,.69-6.34-.69-12.75.29-19.07.25-1.57-1.85-2.76-2.74-1.16a65.87,65.87,0,0,1-17.51,20.08,92.59,92.59,0,0,0-10.21,8.44,39.61,39.61,0,0,0-7.26,10.78,111.69,111.69,0,0,0-5.14,13.89c-.58,1.84,2.31,2.63,2.9.79Z"/><ellipse class="cls-1" cx="399.73" cy="477.15" rx="9.36" ry="9.51"/><path class="cls-1" d="M399.84,452.48a41,41,0,0,1-.71,7.79,41.93,41.93,0,0,1-2.27,7.8"/><path class="cls-1" d="M399.84,452.55a41.86,41.86,0,0,0,.71,7.79,41.12,41.12,0,0,0,2.28,7.8"/><path class="cls-1" d="M424,477a41.26,41.26,0,0,1-15.56-3.11"/><path class="cls-1" d="M423.93,477a41.26,41.26,0,0,0-7.79.65,41.75,41.75,0,0,0-7.82,2.21"/><path class="cls-1" d="M399.64,501.48a41.37,41.37,0,0,1,.77-7.78,42,42,0,0,1,2.33-7.79"/><path class="cls-1" d="M399.65,501.41a41.23,41.23,0,0,0-.66-7.79,41.75,41.75,0,0,0-2.21-7.82"/><path class="cls-1" d="M375.07,476.89a41.8,41.8,0,0,1,15.59,3"/><path class="cls-1" d="M375.14,476.9a41.28,41.28,0,0,0,15.59-3"/><ellipse class="cls-1" cx="654.28" cy="764.88" rx="9.36" ry="9.51"/><path class="cls-1" d="M654.39,740.21a40.86,40.86,0,0,1-.71,7.78,41.7,41.7,0,0,1-2.27,7.8"/><path class="cls-1" d="M654.39,740.28a41.69,41.69,0,0,0,.71,7.78,40.9,40.9,0,0,0,2.28,7.8"/><path class="cls-1" d="M678.55,764.73A41.78,41.78,0,0,1,663,761.62"/><path class="cls-1" d="M678.48,764.72a41.82,41.82,0,0,0-15.61,2.87"/><path class="cls-1" d="M654.19,789.2a41.26,41.26,0,0,1,3.11-15.56"/><path class="cls-1" d="M654.2,789.13a41.82,41.82,0,0,0-2.87-15.61"/><path class="cls-1" d="M629.62,764.62a41.79,41.79,0,0,1,7.79.71,41.12,41.12,0,0,1,7.8,2.28"/><path class="cls-1" d="M629.69,764.62a41,41,0,0,0,7.79-.71,41.93,41.93,0,0,0,7.8-2.27"/><ellipse class="cls-1" cx="289.4" cy="749.54" rx="10.85" ry="11.03" transform="translate(-454.19 445.19) rotate(-46.63)"/><path class="cls-1" d="M268.7,729.79a47.9,47.9,0,0,1,10.76,14.93"/><path class="cls-1" d="M268.76,729.85a48,48,0,0,0,15.51,9.89"/><path class="cls-1" d="M308.61,729a48.15,48.15,0,0,1-15,10.64"/><path class="cls-1" d="M308.55,729a48.27,48.27,0,0,0-5.66,7.09,47.74,47.74,0,0,0-4.36,8.35"/><path class="cls-1" d="M309.84,769a48.07,48.07,0,0,1-10.65-15"/><path class="cls-1" d="M309.78,768.92a47.86,47.86,0,0,0-15.44-10"/><path class="cls-1" d="M269.55,770.11a47.9,47.9,0,0,1,14.93-10.76"/><path class="cls-1" d="M269.61,770.06a47.68,47.68,0,0,0,5.6-7.14,48.2,48.2,0,0,0,4.3-8.38"/><ellipse class="cls-1" cx="289.45" cy="749.66" rx="10.85" ry="11.03" transform="translate(-22.47 9.07) rotate(-1.73)"/><path class="cls-1" d="M288.73,721.06a48.61,48.61,0,0,1-.56,9.05,48.07,48.07,0,0,1-2.36,9.12"/><path class="cls-1" d="M288.72,721.14a48.12,48.12,0,0,0,4,18"/><path class="cls-1" d="M317.58,748.64a48.36,48.36,0,0,1-18.14-3.06"/><path class="cls-1" d="M317.5,748.63a48.1,48.1,0,0,0-18,3.87"/><path class="cls-1" d="M290.2,777.85a48.34,48.34,0,0,1,.63-9,47.23,47.23,0,0,1,2.43-9.1"/><path class="cls-1" d="M290.21,777.77a48.1,48.1,0,0,0-3.87-18"/><path class="cls-1" d="M260.87,750.22a48.56,48.56,0,0,1,9.05.55,48,48,0,0,1,9.12,2.37"/><path class="cls-1" d="M261,750.22a48.36,48.36,0,0,0,18-4"/><path class="cls-1" d="M286.83,376a370.43,370.43,0,0,1,97.93-61.28,248.21,248.21,0,0,1,31.64-11.21"/><path class="cls-2" d="M349.06,408.15c7.45-3.74,13.35-9.69,19.79-14.84a56.08,56.08,0,0,1,19.22-10.12,60.1,60.1,0,0,1,41.88,3c6.91,3.24,12.56,7.91,18,13.23,6,5.87,11.95,11.28,19.85,14.43,16.72,6.67,35,3.49,52.48,3.48a96.22,96.22,0,0,1,24.7,3.15,180.08,180.08,0,0,1,21.92,7.56c14.43,5.84,28.59,12.68,43.76,16.45a83.68,83.68,0,0,0,22.77,2.67c6.07-.19,13.34-1.45,17.25-6.62a9.69,9.69,0,0,0,1.59-8.58c-1-3.19-3.41-5.64-6.08-7.49a44.06,44.06,0,0,0-11-5c-4.26-1.47-8.61-2.67-12.95-3.86a179.32,179.32,0,0,1-24.53-8.33A246.76,246.76,0,0,1,575.42,396c-14.49-8.2-28.55-17.22-43.61-24.38-3.69-1.76-7.44-3.4-11.25-4.89-1.79-.71-2.57,2.19-.8,2.89,30.62,12.06,56.38,33.89,87.56,44.74,8.36,2.92,17,4.8,25.46,7.55a48.37,48.37,0,0,1,11.15,4.75c2.65,1.69,5.42,4.21,5.7,7.55.55,6.66-7.83,9.34-13.06,9.85a72.64,72.64,0,0,1-22.38-1.74c-30-6.6-56.18-26-87.42-27.75-17.6-1-35.62,3-52.92-1.77a44,44,0,0,1-10.79-4.49,53.69,53.69,0,0,1-9.69-7.7c-5.58-5.34-10.88-10.8-17.62-14.69a62.81,62.81,0,0,0-40.31-7.37A59.12,59.12,0,0,0,376,385c-6.92,3.74-12.56,9.19-18.62,14.1a54.73,54.73,0,0,1-9.78,6.51c-1.73.87-.21,3.46,1.51,2.59Z"/><path class="cls-2" d="M523.67,370.75c22.43-.47,41.59-12.9,61.63-21.39a160.46,160.46,0,0,1,34.46-9.86c12.09-2.14,24.59-2.8,36.75-.78,11.36,1.88,22.24,6.06,32.65,10.89,9.7,4.49,19.4,9.44,30,11.61a50.86,50.86,0,0,0,14.66,1c3.45-.31,7.39-1.18,9.91-3.74,3.06-3.11,2.15-7.6-.29-10.78a22.84,22.84,0,0,0-5.9-4.95q-3.86-2.52-7.73-5c-19.59-12.47-40.14-24.11-62.72-30.18-2.8-.75-5.63-1.41-8.47-2-1.88-.38-2.69,2.51-.8,2.89,22.38,4.53,42.85,14.88,62.2,26.7,5.06,3.09,10.06,6.29,15,9.53,2.13,1.38,4.43,2.72,6,4.77,1.08,1.41,2,3.33,1.57,5.14-.75,3.06-5,4.06-7.66,4.46a42.41,42.41,0,0,1-13.44-.46c-10.28-1.83-19.74-6.46-29.12-10.84-10-4.67-20.29-8.92-31.13-11.23a105.58,105.58,0,0,0-35.9-.94,164,164,0,0,0-17.7,3.42A161.54,161.54,0,0,0,590.78,344c-19.88,7.28-38,20-59.25,23.14a62.61,62.61,0,0,1-7.86.63c-1.93,0-1.94,3,0,3Z"/><path class="cls-2" d="M741.31,360.92a123.43,123.43,0,0,0,15.17,12.87c1.7,1.27,4.4,3.8,1.52,5.38-2.65,1.45-6.22,1.77-9.18,1.8-13.44.18-25-7.84-36.47-13.65-6.14-3.1-12.47-5.81-18.83-8.43s-12.49-5.41-19-7.06-13.52-1.52-20.34-1.28c-7.13.25-14.26.34-21.38.21A388.14,388.14,0,0,1,584.84,347,1.56,1.56,0,0,0,583,348a1.51,1.51,0,0,0,1,1.84,393,393,0,0,0,44.53,3.83q11.08.31,22.16,0c7.19-.2,14.49-.81,21.58.74s13.61,4.59,20.19,7.29,13.37,5.64,19.81,9c11.83,6.12,23.93,14,37.84,13.27,3.28-.18,7.37-.65,10.1-2.64s2.43-5.43.31-7.86a21.45,21.45,0,0,0-3.8-3.1q-2.34-1.69-4.58-3.51a105.53,105.53,0,0,1-8.75-8c-1.35-1.38-3.47.74-2.12,2.12Z"/><path class="cls-2" d="M647.46,305.19c-13.82.07-27.67.08-41.47-.92-14.12-1-28.37-2.91-41.86-7.35-3-1-5.94-2-9-2.68A79.06,79.06,0,0,0,545,292.76c-7.27-.74-14.57-1.11-21.87-1.18a411.17,411.17,0,0,0-42.53,2.16c-15.83,1.5-31.63,3.43-47.49,4.73-1.91.16-1.92,3.16,0,3,28.4-2.32,56.66-6.7,85.2-6.9,7.11-.05,14.22.16,21.31.71,3.6.28,7.22.59,10.8,1.1a61.87,61.87,0,0,1,9.68,2.37c3,1,6.07,2,9.15,2.91,3.44,1,7,1.65,10.46,2.31,7.06,1.31,14.2,2.25,21.35,2.9,15.43,1.4,30.93,1.4,46.41,1.32a1.5,1.5,0,0,0,0-3Z"/><path class="cls-2" d="M432.33,298.6c-2.83.5-5.64,1-8.48,1.38a59.06,59.06,0,0,0-8.53,2.21,1.5,1.5,0,0,0,.8,2.89l4.46-1.26a23.39,23.39,0,0,1,3.87-.91c2.91-.31,5.79-.91,8.67-1.41a1.52,1.52,0,0,0,1.05-1.85,1.53,1.53,0,0,0-1.84-1Z"/><path class="cls-2" d="M658.07,305.58l-12.15-.44a1.5,1.5,0,0,0,0,3l12.15.44a1.5,1.5,0,0,0,0-3Z"/><path class="cls-1" d="M759,897.32A370.59,370.59,0,0,1,661,958.6a251.48,251.48,0,0,1-31.65,11.21"/><path class="cls-2" d="M696.74,865.15c-7.45,3.74-13.35,9.69-19.79,14.84a56.23,56.23,0,0,1-19.22,10.11,60.1,60.1,0,0,1-41.88-3c-6.92-3.23-12.56-7.9-18-13.22-6-5.87-12-11.29-19.86-14.44-16.71-6.66-35-3.48-52.47-3.47a96.3,96.3,0,0,1-24.71-3.15,183,183,0,0,1-21.92-7.56c-14.43-5.84-28.59-12.68-43.75-16.45a83.29,83.29,0,0,0-22.77-2.67c-6.07.19-13.34,1.45-17.26,6.62a9.67,9.67,0,0,0-1.58,8.57c.95,3.2,3.4,5.64,6.08,7.49a44,44,0,0,0,11,5c4.27,1.46,8.62,2.66,13,3.86A177.84,177.84,0,0,1,448.1,866a245.62,245.62,0,0,1,22.28,11.37c14.49,8.2,28.55,17.21,43.61,24.38q5.53,2.64,11.25,4.89c1.79.71,2.57-2.19.79-2.89-30.61-12.07-56.37-33.89-87.55-44.75-8.37-2.91-17-4.79-25.46-7.55a48.34,48.34,0,0,1-11.15-4.74c-2.65-1.7-5.42-4.21-5.7-7.55-.55-6.66,7.82-9.35,13.06-9.85A72.34,72.34,0,0,1,431.61,831c30,6.6,56.18,26,87.42,27.74,17.6,1,35.62-3,52.92,1.78A44.33,44.33,0,0,1,582.74,865a53.31,53.31,0,0,1,9.69,7.71c5.58,5.33,10.88,10.8,17.62,14.69a62.81,62.81,0,0,0,40.31,7.37,59.43,59.43,0,0,0,19.49-6.44c6.91-3.75,12.55-9.19,18.62-14.1a54.2,54.2,0,0,1,9.78-6.51c1.73-.87.21-3.46-1.51-2.59Z"/><path class="cls-2" d="M522.13,902.54c-22.43.47-41.6,12.91-61.63,21.4A161.12,161.12,0,0,1,426,933.8c-12.08,2.14-24.59,2.8-36.74.78-11.37-1.89-22.24-6.06-32.65-10.89-9.7-4.49-19.41-9.44-29.95-11.61a50.92,50.92,0,0,0-14.67-1c-3.44.3-7.39,1.18-9.91,3.74-3.06,3.1-2.14,7.59.3,10.78a22.67,22.67,0,0,0,5.9,4.95q3.85,2.51,7.73,5c19.59,12.47,40.14,24.11,62.72,30.18q4.2,1.13,8.47,2c1.88.38,2.69-2.51.79-2.9-22.37-4.53-42.85-14.87-62.19-26.69q-7.59-4.65-15-9.53c-2.13-1.39-4.43-2.73-6-4.78-1.07-1.41-2-3.32-1.57-5.13.76-3.07,5-4.07,7.67-4.47a42.41,42.41,0,0,1,13.44.47c10.28,1.82,19.74,6.45,29.12,10.83,10,4.68,20.29,8.92,31.13,11.23a105.07,105.07,0,0,0,35.9.94,161,161,0,0,0,17.69-3.41A163.46,163.46,0,0,0,455,929.32c19.88-7.28,38-20,59.25-23.14a64.56,64.56,0,0,1,7.86-.64c1.93,0,1.93-3,0-3Z"/><path class="cls-2" d="M304.49,912.38a123.38,123.38,0,0,0-15.17-12.88c-1.71-1.26-4.4-3.79-1.52-5.37,2.65-1.46,6.21-1.77,9.18-1.81,13.43-.17,24.94,7.84,36.46,13.66,6.15,3.1,12.48,5.81,18.84,8.43s12.49,5.4,19,7.05,13.52,1.53,20.34,1.29q10.69-.39,21.38-.22A386.22,386.22,0,0,1,461,926.35a1.57,1.57,0,0,0,1.85-1.05,1.51,1.51,0,0,0-1.05-1.84,393,393,0,0,0-44.53-3.83q-11.09-.32-22.16,0c-7.19.21-14.49.82-21.58-.74s-13.61-4.58-20.19-7.28-13.37-5.64-19.81-9c-11.83-6.13-23.94-14-37.85-13.27-3.27.18-7.36.65-10.09,2.64s-2.43,5.43-.31,7.85A21.36,21.36,0,0,0,289,903q2.36,1.68,4.59,3.51a103.67,103.67,0,0,1,8.75,8c1.35,1.38,3.47-.74,2.12-2.12Z"/><path class="cls-2" d="M398.33,968.11C412.16,968,426,968,439.8,969c14.13,1,28.38,2.91,41.87,7.35,3,1,5.94,2,9,2.68a82.46,82.46,0,0,0,10.15,1.48c7.27.74,14.57,1.1,21.87,1.18a408.41,408.41,0,0,0,42.53-2.17c15.83-1.49,31.63-3.43,47.48-4.73,1.91-.15,1.93-3.15,0-3-28.39,2.33-56.66,6.71-85.19,6.9-7.11,0-14.22-.16-21.31-.7-3.61-.28-7.23-.59-10.8-1.11a59.83,59.83,0,0,1-9.69-2.37c-3-1-6.06-2-9.14-2.9-3.44-1-7-1.66-10.46-2.31-7.07-1.31-14.2-2.25-21.35-2.9-15.43-1.4-30.94-1.4-46.42-1.32a1.5,1.5,0,0,0,0,3Z"/><path class="cls-2" d="M613.47,974.69c2.82-.49,5.63-1,8.47-1.37a58.73,58.73,0,0,0,8.53-2.21,1.5,1.5,0,0,0-.79-2.9l-4.46,1.27a23.51,23.51,0,0,1-3.88.91c-2.9.3-5.78.9-8.66,1.41a1.5,1.5,0,1,0,.79,2.89Z"/><path class="cls-2" d="M387.73,967.72l12.15.44a1.5,1.5,0,0,0,0-3l-12.15-.44a1.5,1.5,0,0,0,0,3Z"/><path class="cls-2" d="M146,376.59l-20.76-17.36-20.75-17.37Q93,332.59,69.37,314.26q-23.49-18.18-35.12-27.59l-1-.83a48.42,48.42,0,0,1-7.52-7.49q-3.79-4.75-.26-9.13Q35,257.45,48.27,256.77t25.93,9.57A47.54,47.54,0,0,1,87,283.39q5.11,10.83,4.72,19.7a51.67,51.67,0,0,1,28.84-.48,73.18,73.18,0,0,1,26.91,14.13q6,4.85,11.61,16.09,6.64,13.47,4.44,25.62a31.07,31.07,0,0,1-6.43,13.19l-.54.67Q150.28,380.05,146,376.59ZM81,296.08A92.18,92.18,0,0,0,73.17,282a54.63,54.63,0,0,1-3.42-5.56l-6-4.85a20.57,20.57,0,0,0-12.91-4.32q-7.79-.18-11.61,4.54-1.91,2.36,3.4,6.65,11.28,9.13,20.45,16l19.25,15Q84.85,304.22,81,296.08Zm71.52,47.31q-2.53-10.14-11.6-17.48a99.4,99.4,0,0,0-15.47-10.43q-7.61-4.07-12.66-4.82a50.2,50.2,0,0,0-8.47-.73,14.81,14.81,0,0,0-5.5.85l-1.6.93-4.91,6.06q20.34,15.09,57.27,45A24.71,24.71,0,0,0,152.5,343.39Z"/><path class="cls-2" d="M200.72,321.64a13.45,13.45,0,0,1-3.76,6.7,5.52,5.52,0,0,1-4.8,1.43,7.88,7.88,0,0,1-4.77-2.28Q174.55,314.2,154.24,291q-21.84-24.48-33.15-36.19L120,253.7q-10.56-9.07-15.3-14-14.52-15-9.07-20.3A5.17,5.17,0,0,1,99.52,218a5.32,5.32,0,0,1,3.84,1.64,82.68,82.68,0,0,1,5.35,6.46,75,75,0,0,0,5.34,6.47q10.24,10.6,18.65,19,8.25,8.25,18.5,18.84a31.07,31.07,0,0,0,5.64,7.4l1.83,1.9,11.77,12.8q5,5.83,11.92,12.95,10.54,10.92,15.68,5.95a12.5,12.5,0,0,0,.94-1.05,24.91,24.91,0,0,1,1.87-2,47,47,0,0,1,3.43-3.62q8.41-8.13,13-3.38a4.61,4.61,0,0,1,1.2,4,10.14,10.14,0,0,1-2.06,4.74Q209,313.66,200.72,321.64Z"/><path class="cls-2" d="M257.6,273.48c-1.88.15-3.67-.9-5.35-3.12q-4-5.26-15.28-16.58l-3.48-3.16-19.08,10.32q2,4.81,9.41,18.53,5.48,9.39,5.36,13.89a5.15,5.15,0,0,1-2.26,4.19,7.64,7.64,0,0,1-4.8,1.56,4.93,4.93,0,0,1-4.18-1.93l-.32-1.14-.36-.83a991.83,991.83,0,0,0-50.08-102q-.52-.69-1.62-2.49c-.72-1.2-1.83-2.9-3.3-5.09-2.93-4.58-5.18-8.32-6.72-11.2a17.16,17.16,0,0,1-2.4-7.29L159,162.7a9.21,9.21,0,0,1,5-2,4.59,4.59,0,0,1,4.18,1.93q10.11,13.34,33.65,36.89,23.91,24.39,32.15,35.27a52.47,52.47,0,0,0,5,4.78,42.53,42.53,0,0,1,4.85,4.6q.93,1.23,9.69,9.22,7.93,7.25,9.79,9.69l.14.18c1.95,2.57,2.26,4.91.95,7C261.75,272.27,259.49,273.34,257.6,273.48Zm-35.53-34.35q-12-15.78-33.32-38.24L173.21,184q23.79,46.85,37,70,3.91-.21,17.32-8.71A43.27,43.27,0,0,1,222.07,239.13Z"/><path class="cls-2" d="M286.33,212.71l-6-11-4.79-8.92-.32-.58-1.08-1.91a38.18,38.18,0,0,0-1.87-3.75,1.81,1.81,0,0,0-1.11-.64,1.76,1.76,0,0,1-1.1-.64l-.11-.19a11.63,11.63,0,0,1-3.18,2.3,33.93,33.93,0,0,1-6.47,2.64l-6.58,2.45,12.44,22q2.81,5,9.43,15.4,6.51,10.22,9.43,15.39a9.52,9.52,0,0,1,1.31,5.83,5.35,5.35,0,0,1-2.78,4.34q-3.58,2-9.09-4.21a110.54,110.54,0,0,1-12.21-18.12l-8.39-15.73q-3.48-6.62-7.59-13.9l-1.84-3.26L243,197.53a32.45,32.45,0,0,0-2.46-3.92l-.54-1-5.71-11.44q-4.11-7.28-12.78-21.33t-12.79-21.33a6.79,6.79,0,0,1-.76-4.87,5.53,5.53,0,0,1,2.8-3.86q6-3.41,12.52,8.09l13,24q5.69,11,13.14,24.16,3.38-.63,10.73-4.79l7-3.94a8.58,8.58,0,0,0-.92-2.51q-5.19-9.19-16.49-26.57-10.83-16.11-16.78-26.65a5.26,5.26,0,0,1-.4-4.45,6.43,6.43,0,0,1,3.06-3.62,13.44,13.44,0,0,1,4.31-1.17l2.13-.19q15.36,27.21,42.87,71.55L314,231.22a5.78,5.78,0,0,1,.39,5.34,8.37,8.37,0,0,1-3.75,4.14Q304.17,244.32,286.33,212.71Z"/><path class="cls-2" d="M349.68,223.3a27,27,0,0,1-10.78-6.36,88.13,88.13,0,0,1-17.73-24.54,224.82,224.82,0,0,1-12.11-26.23,37.58,37.58,0,0,1-1.37-4.19l-1.41-3.7c-.26-.68-.46-1-.6-.95l-1.41-3.7L299,139.17q-2.31-6.64-6.39-21.58a77,77,0,0,1-2.65-20.89A16.81,16.81,0,0,1,291.18,89,7.56,7.56,0,0,1,295.41,85a37,37,0,0,1,15.71-2.59,32.94,32.94,0,0,1,14.11,4.15,50.9,50.9,0,0,1,11.71,10,80.29,80.29,0,0,1,10.13,14.38,141.91,141.91,0,0,1,8.21,17.82l.62,1.65q2.44,6.38,4.6,11.43l4.68,11.64q22.62,59.17-4.49,69.54A16.78,16.78,0,0,1,349.68,223.3Zm12.44-14.17a20.65,20.65,0,0,0,1.55-9.9,87.14,87.14,0,0,0-4-24.38q-3-10.86-5.9-18.47-3.54-9.25-10.69-23.71-7.26-15.36-10.24-23.17l-1.42-3.7A24.2,24.2,0,0,0,321.1,94.21q-7-3.93-13.84-1.31t-6,11.5q.42,7.14,4.26,17.21c1,2.61,1.9,4.77,2.72,6.5l2.12,5.55,3.21,9.61c.82,3,1.9,6.18,3.2,9.6q4.25,11.1,9,21.76a194.14,194.14,0,0,0,15.51,28.46q9,14,15.32,11.57A10,10,0,0,0,362.12,209.13Z"/><path class="cls-2" d="M398.94,176.8,392,142.74q-3.06-15.09-7.1-33.8-1.5-6.89-5.88-21-4.47-15.45-5.21-18.9a6.74,6.74,0,0,1,1.26-5.45,7.48,7.48,0,0,1,4.62-3.25,33.12,33.12,0,0,1,15,.24,39.48,39.48,0,0,1,14.2,6.71,70.11,70.11,0,0,1,26.36,40.89c.41,1.86.71,3.6.91,5.2l1,5.86L439.78,131q3,13.77,3.86,21.9a70.61,70.61,0,0,1-.72,20.19,50.62,50.62,0,0,1-8.79,18.79,60.35,60.35,0,0,1-8.34,8.56l-15.25,3.3Q405,205,398.94,176.8Zm25.89,10a20.53,20.53,0,0,0,4.81-7.46,44.9,44.9,0,0,0,2-9.55,67.64,67.64,0,0,0,.44-10.79,133.57,133.57,0,0,0-2-20.28q-.34-2.62-1.42-7.58Q414.68,66.26,389.3,68.82a151.84,151.84,0,0,0,3.36,22.68q2.93,13.55,11.93,46.94,7.95,29.57,11.78,47.2l1.11,5.16A14.85,14.85,0,0,0,424.83,186.84Z"/><path class="cls-2" d="M507.16,188.72q-2.49-1.35-2.81-5.52-.51-6.57-3.88-22.21l-1.22-4.54-21.63-1.65q-.92,5.14-2.11,20.68-.47,10.86-3,14.58a5.14,5.14,0,0,1-4.17,2.3,7.63,7.63,0,0,1-4.88-1.28,5,5,0,0,1-2.47-3.89l.35-1.13.15-.89A992,992,0,0,0,474.55,72.3c0-.59-.05-1.58,0-3s0-3.42,0-6.07q0-8.16.41-13a17.25,17.25,0,0,1,1.93-7.43l7.34-.56a9.29,9.29,0,0,1,5.3,1A4.61,4.61,0,0,1,492,47.13q1.28,16.68,8.33,49.23,6.91,33.45,8,47.05a50.58,50.58,0,0,0,1.6,6.72,41.41,41.41,0,0,1,1.58,6.49q.12,1.55,3.17,13,2.76,10.38,3,13.45l0,.22c.24,3.22-.76,5.35-3,6.41Q509.66,190.08,507.16,188.72Zm-11.29-48.11q-1.51-19.74-7.33-50.19l-3.91-22.65q-5.33,52.26-6.77,78.85,3.4,1.95,19.28,2A42.37,42.37,0,0,1,495.87,140.61ZM479.94,32.06a2.45,2.45,0,0,1-1.24-2,3.16,3.16,0,0,1,.91-2.28l3.22-3.34q1-1.17,11.27-11.67L506,.6A4.34,4.34,0,0,1,507.9,0a6.18,6.18,0,0,1,5,2.27,8.59,8.59,0,0,1,2.58,5.32c.14,1.76-.28,3-1.24,3.63Q506.89,18,484.07,32.07a2.44,2.44,0,0,1-1.7.57A4,4,0,0,1,479.94,32.06Z"/><path class="cls-2" d="M561.29,182.45a121.42,121.42,0,0,1-5.53-23.85l-1.13-7.54q-4.7-31.74-6.2-36.22l-2.6-.13q-.32,6.38-.8,11.63l-.61,12.09q-1.49,29.44,1.79,46.12l-2.68,5.82-6-.31-2.65-3.44,1-14.71q1-19.77,1.08-60.08.42-42.93,1.29-60.07.52-10.55,7.67-10.19,11.68.6,18.84,7.12t6.6,17.52l-.78,15.38A31.69,31.69,0,0,1,569,89.11a36.4,36.4,0,0,1-2.73,6.8l-4.51,7.71L558,110l.81,5.33,2.24,15.75q2.18,17.08,4.46,27.76a109.45,109.45,0,0,0,6,19.47l1.16,2.7q1.95,4.5,1.81,7.14A6,6,0,0,1,573,192a4.2,4.2,0,0,1-3.54,1.47Q564.64,193.19,561.29,182.45ZM556,91.1a68.71,68.71,0,0,0,4.37-19.94,48.71,48.71,0,0,0-1.07-13.27,10.26,10.26,0,0,0-3.3-5.56A10,10,0,0,0,550,50.15l-.49,1.08-.53,2-.87,25.95q-.15,11.46-.82,24.85Q552.12,101.81,556,91.1Z"/><path class="cls-2" d="M643.41,201.86a10.29,10.29,0,0,1-.84-5.26l-.36-4.36.09-.43.14-.64q1.57-7.09-3.82-51.54t-9.29-66L605.5,181.66l.51,1.7c.08.31.25.88.52,1.69a4.4,4.4,0,0,1,.16,2.28,6.64,6.64,0,0,1-3,4.31,6.45,6.45,0,0,1-5.08.91q-6.76-1.5-3.88-14.6l7.89-36.78q3.44-16.59,7.94-37,1.51-6.89,5-19.84,3.63-13.39,5.05-19.84,2.22-10.09,11.12-14.22l-.29,1.29a7.19,7.19,0,0,1,1.79-.06q4.86,1.08,8.48,19.9a305.39,305.39,0,0,1,4.28,31.35q1.39,16.32,3,46.18l.41,8.2q1,18.48,1.9,26.55,14.42-45.26,28.31-108.2l.61-2.79a18,18,0,0,1,.41-2.84q1.43-6.45,6.5-5.33a5.28,5.28,0,0,1,4,3.37,10.79,10.79,0,0,1,.26,6.36L688,90.37q-7.72,33-18.37,71.19t-14.69,42.49a43.46,43.46,0,0,1-8,0A5,5,0,0,1,643.41,201.86Z"/><path class="cls-2" d="M716.09,228.5q-1.64-2.31-.07-6.2,2.47-6.11,6.4-21.61l.93-4.61L704.7,185q-3.11,4.2-11.08,17.59-5.25,9.51-9.17,11.72a5.16,5.16,0,0,1-4.76.21,7.64,7.64,0,0,1-3.8-3.31,4.94,4.94,0,0,1-.48-4.59l.81-.86.53-.73a993.75,993.75,0,0,0,61.86-95.31,28.23,28.23,0,0,1,1.31-2.67q1-1.86,2.67-5.45,3.64-7.31,6.16-11.51a17.27,17.27,0,0,1,5-5.8L760.61,87a9.35,9.35,0,0,1,4.29,3.27,4.63,4.63,0,0,1,.48,4.59q-6.27,15.5-14.4,47.8-8.67,33-13.78,45.69a51.09,51.09,0,0,0-1.55,6.73,41.32,41.32,0,0,1-1.47,6.52q-.57,1.43-2.93,13.05c-1.43,7-2.54,11.48-3.3,13.38l-.09.2c-1.2,3-3.05,4.47-5.52,4.42C719.26,231.44,717.18,230.05,716.09,228.5Zm11.26-48.12q7.41-18.36,15.74-48.22l6.56-22q-28,44.46-41.1,67.63,2.19,3.27,16.36,10.41A42.65,42.65,0,0,1,727.35,180.38Zm34-104.33a2.42,2.42,0,0,1-.22-2.34,3.17,3.17,0,0,1,1.83-1.64l4.36-1.55q1.43-.61,15.29-5.46l16-5.61a4.19,4.19,0,0,1,2,.32A6.16,6.16,0,0,1,804,64a8.6,8.6,0,0,1,0,5.91c-.66,1.63-1.57,2.53-2.72,2.7Q791.71,75.4,765,77.9a2.52,2.52,0,0,1-1.77-.24A4.07,4.07,0,0,1,761.31,76.05Z"/><path class="cls-2" d="M773.77,260.5q4.08-11.28,15.48-28.53l11.16-16.1q5.21-7.1,11.16-16.09a14.28,14.28,0,0,1,1.94-5.31l.37-.55q4.11-2.29,12.24-14.59l5.76-8.32c1.89-2.61,3.94-5.57,6.12-8.88q7.15-10.81,9.84-18a15.39,15.39,0,0,1,4.78-3.3,4.34,4.34,0,0,1,4.34.1l7.95,5.26a20,20,0,0,1,7.34,8.14,17.73,17.73,0,0,1,1.48,10.34q-1.37,9.91-8.15,20.19-4.86,7.35-7.83,11.45a47.9,47.9,0,0,1-8.23,8.53,15.06,15.06,0,0,1-4.15,2.93,48.8,48.8,0,0,1-5.28,1.91q-4.61,1.46-12.2.38a37.35,37.35,0,0,1-7.72-1.68l-13,19.64-7.4,12-3.4,5.93q-6.07,10.76-10.8,17.91a5.77,5.77,0,0,1-4.3,2.57,7.42,7.42,0,0,1-5.18-1.19ZM856.49,177a57.82,57.82,0,0,0,4.91-8.62,13.75,13.75,0,0,0,.92-4.53,8.15,8.15,0,0,0-1.19-4.09,10.65,10.65,0,0,0-3.61-4c.08-.12-.54-.62-1.87-1.49l-6.91,10.46q-7.15,10.83-12.56,19.39-6.3,9.54-8.07,12.6l-2.54,3.85-.25.37Q837.08,206.35,856.49,177Z"/><path class="cls-2" d="M820.05,292.51a6.9,6.9,0,0,1,1.23-5.3l3.69-4.37,2.84-3.36a41.59,41.59,0,0,1,2.82-3.66q3-3.52,8.6-11.17l8.77-11q7-8.22,21.24-24.1,13-14.06,21.41-24c1.33-1.56,3.15-4.06,5.47-7.47s4.24-6,5.48-7.47q10.08-11.93,17-6.05a58,58,0,0,1,10.8,12.89q5.36,8.26,2.79,11.29a5.74,5.74,0,0,1-4,1.92,13.52,13.52,0,0,1-5.31-.6,86.61,86.61,0,0,0-9.73-14q-2,2.66-5.94,7.36-5.69,6.72-10.4,12-7.32,7.63-10.73,11.67l-1.78,3.11,2.79,2.07a33.88,33.88,0,0,1,3.45,2.63q7.94,6.7,4,11.41a5.13,5.13,0,0,1-4.12,1.85,7.43,7.43,0,0,1-4.87-2,32.06,32.06,0,0,1-4.34-4.25l-4.14-3.5q-3.36,4.65-10.47,13t-12.95,15q-9.17,9.82-13.43,14.86-8,9.4-7.63,9.69l5.6,4.45q3,2.21,6.92,5.56,6.28,5.33,2.87,9.35a5.21,5.21,0,0,1-5.12,1.86,12.41,12.41,0,0,1-6.11-3l-14.05-11.9A7.5,7.5,0,0,1,820.05,292.51ZM924.46,178.69a2.39,2.39,0,0,1,.52-2.29,3.16,3.16,0,0,1,2.25-1l4.63-.12c1-.09,6.43-.22,16.23-.39l17-.31a4.21,4.21,0,0,1,1.77.93,6.11,6.11,0,0,1,1.93,5.09,8.58,8.58,0,0,1-1.89,5.6c-1.14,1.34-2.29,1.91-3.44,1.7q-9.93-.33-36.08-6.32a2.44,2.44,0,0,1-1.6-.78A4,4,0,0,1,924.46,178.69Z"/><path class="cls-2" d="M871.28,341.49a30.77,30.77,0,0,1-3.21-8.11q-3-17.07,27.88-45.89l4.34-4.06,5-4.65,3.85-3.61q6.43-6,11.65-10.57t11.6-9.66a92.79,92.79,0,0,1,11.55-8.11,72.18,72.18,0,0,1,11.88-5.16,27.38,27.38,0,0,1,11.59-2.09,31.65,31.65,0,0,1,11.07,3.15,33,33,0,0,1,10.94,8.17,7.24,7.24,0,0,1,2.27,4.69,5.05,5.05,0,0,1-1.71,4,6.16,6.16,0,0,1-3.86,1.67,4.88,4.88,0,0,1-3.73-1.1l-7-7.44q-3-3.16-9.2-1.79a39.54,39.54,0,0,0-13.55,6.43q-13.83,9.06-21.22,16l-.8.75-15.74,14.09q-7.21,6.15-15.89,14.25a115.79,115.79,0,0,0-9.52,9.79,43.19,43.19,0,0,0-7.14,11.7,16.07,16.07,0,0,0-.21,12.34,18.91,18.91,0,0,0,3.91,6.13,8,8,0,0,0,4.54,2.28,8.34,8.34,0,0,1,2.3,4.23,4.07,4.07,0,0,1-1.4,3.82q-6.27,5.86-14.4-2.85A38.64,38.64,0,0,1,871.28,341.49Zm113.8-114.41A127.14,127.14,0,0,1,993,208q5-9.83,7.86-12.53a3.9,3.9,0,0,1,3.36-.92,5.57,5.57,0,0,1,3.4,1.72c1.09,1.16.76,3.93-1,8.31a157.84,157.84,0,0,1-8.21,15.07l-5.47,9c2.87-2.08,4.83-3.52,5.9-4.32s3-2.26,6-4.4a81.92,81.92,0,0,1,8.33-5.41q7.79-4.89,10.74-1.72a4.4,4.4,0,0,1,1.25,3.27,4.49,4.49,0,0,1-1.53,3.2,3.26,3.26,0,0,1-1.87.57l-1.72.42-2.9,2.7-10.91,6q-11.4,6.5-13.48,8.45c-3.44,3.2-6.38,3.48-8.85.84Q982.14,236.35,985.08,227.08Z"/><path class="cls-2" d="M899,372.67a6.9,6.9,0,0,1,2.42-4.88L906,364.4l3.54-2.61q1.47-1.34,3.6-2.91,3.72-2.73,11-8.86l11.08-8.69q8.69-6.39,26.26-18.51,15.93-10.63,26.39-18.33a91.57,91.57,0,0,0,7.06-6q4.75-4.29,7.06-6,12.59-9.25,18-1.93a58.06,58.06,0,0,1,7.52,15.05q3.27,9.28.09,11.63a5.73,5.73,0,0,1-4.37.93,13.59,13.59,0,0,1-5-1.82,86.16,86.16,0,0,0-6.21-15.87q-2.52,2.13-7.49,5.78-7.09,5.22-12.89,9.21-8.89,5.73-13.14,8.86L975.94,327l2.23,2.66a35.34,35.34,0,0,1,2.74,3.36q6.17,8.37,1.2,12a5.11,5.11,0,0,1-4.44.84,7.43,7.43,0,0,1-4.28-3,32,32,0,0,1-3.24-5.15l-3.2-4.36q-4.37,3.73-13.22,10.25T937.65,355.1q-11.19,7.42-16.51,11.34-9.93,7.29-9.67,7.64l4.41,5.63q2.36,2.84,5.44,7,4.88,6.63.62,9.76a5.25,5.25,0,0,1-5.41.62,12.46,12.46,0,0,1-5.24-4.35l-10.91-14.83A7.49,7.49,0,0,1,899,372.67Z"/><path class="cls-2" d="M567.17,966.49a9.94,9.94,0,0,1-3.82-.44,6.53,6.53,0,0,1-3-2,6,6,0,0,1-1.36-3.6,5.15,5.15,0,0,1,.54-3,4.07,4.07,0,0,1,1.76-1.64,5.74,5.74,0,0,1,2.07-.6,7.54,7.54,0,0,0-1.34,2.47,7,7,0,0,0-.33,2.61,5.39,5.39,0,0,0,.8,2.49,4.53,4.53,0,0,0,2,1.76,6.36,6.36,0,0,0,3.23.49,9.1,9.1,0,0,0,3.21-.85,6.18,6.18,0,0,0,2.47-2,4.41,4.41,0,0,0,.8-3,4.52,4.52,0,0,0-1-2.66,8.37,8.37,0,0,0-2.23-1.87c-.9-.53-1.84-1-2.84-1.5a30.6,30.6,0,0,1-2.85-1.51,8.58,8.58,0,0,1-2.24-1.92,4.88,4.88,0,0,1-1-2.78,8.18,8.18,0,0,1,.5-3.29,11.69,11.69,0,0,1,1.9-3.36,11.06,11.06,0,0,1,3.14-2.69,10,10,0,0,1,4.28-1.26,3.75,3.75,0,0,1,3.1.83,4.08,4.08,0,0,1,1.05,2.57,9.9,9.9,0,0,1-.26,2.89,19.55,19.55,0,0,1-.91,3c-.38.95-.74,1.76-1.09,2.43a1.43,1.43,0,0,1-1-.51,1.76,1.76,0,0,1-.35-1,5.7,5.7,0,0,1,.2-1.79c.17-.68.38-1.38.61-2.12s.43-1.44.61-2.13a5.9,5.9,0,0,0,.19-1.84,1.51,1.51,0,0,0-.53-1.13,2.39,2.39,0,0,0-1.65-.31,6.71,6.71,0,0,0-3.16,1.05,9.38,9.38,0,0,0-2.43,2.27,10.38,10.38,0,0,0-1.53,2.79,6.33,6.33,0,0,0-.42,2.59,3.58,3.58,0,0,0,1,2.27,8.54,8.54,0,0,0,2.19,1.62c.87.47,1.8.93,2.79,1.39a21.2,21.2,0,0,1,2.81,1.55,8.27,8.27,0,0,1,2.22,2.11,6,6,0,0,1,1,3.13,6.43,6.43,0,0,1-.6,3.42,7.68,7.68,0,0,1-2.1,2.62,10.69,10.69,0,0,1-3,1.73A11.52,11.52,0,0,1,567.17,966.49Zm6-31.18a1.86,1.86,0,0,1-1-.33,6,6,0,0,1-1.17-1,7.71,7.71,0,0,1-1-1.28,3,3,0,0,1-.44-1.27,1.47,1.47,0,0,1,.1-.69.91.91,0,0,1,.44-.49,8.62,8.62,0,0,0,1.32,1.7c.48.47,1,1,1.67,1.48a16.18,16.18,0,0,0,2-1,8.29,8.29,0,0,0,1.65-1.34.74.74,0,0,1,.32.31,1,1,0,0,1,.1.36,1.62,1.62,0,0,1-.42,1.14,6.82,6.82,0,0,1-1.14,1.14,7.59,7.59,0,0,1-1.37.89A2.93,2.93,0,0,1,573.17,935.31Z"/><path class="cls-2" d="M583.44,963.47a3.16,3.16,0,0,1-2.54-.61,3.9,3.9,0,0,1-1.19-2.6,16.64,16.64,0,0,1,.1-4,49,49,0,0,1,.92-5c-.25,0-.49,0-.72,0a3.29,3.29,0,0,1-.64-.09l-.09-.66H580l.93,0c.35-1.38.74-2.72,1.17-4s.88-2.48,1.33-3.52a14.51,14.51,0,0,1,1.37-2.51c.45-.64.86-1,1.23-1a.86.86,0,0,1,.56.13.78.78,0,0,1,.31.58,5.13,5.13,0,0,1-.51,2.13c-.4,1-.9,2.2-1.49,3.59s-1.16,2.88-1.68,4.49l.68-.09.68-.09c.81-.1,1.66-.22,2.56-.35s1.78-.32,2.67-.53l.09.66c-1.33.32-2.53.58-3.58.79s-2,.36-2.84.47l-.27,0-.28,0a32.27,32.27,0,0,0-.93,4.17,14.25,14.25,0,0,0-.08,4.06,4,4,0,0,0,.76,2.19,1.81,1.81,0,0,0,1.66.48,5.58,5.58,0,0,0,3.54-2.16,15,15,0,0,0,2.66-5l.52.3a15.68,15.68,0,0,1-1.75,4,11.24,11.24,0,0,1-2.64,3A6.58,6.58,0,0,1,583.44,963.47Z"/><path class="cls-2" d="M595.42,961.73a4.44,4.44,0,0,1-3.55-.66,4.36,4.36,0,0,1-1.62-2.82,8.53,8.53,0,0,1,.25-3.6,14.87,14.87,0,0,1,1.62-3.78,12.8,12.8,0,0,1,2.59-3.11,6.29,6.29,0,0,1,3.08-1.54,3,3,0,0,1,1.63.18,2,2,0,0,1,1,1.66,4.67,4.67,0,0,1-.39,2.74,8.41,8.41,0,0,1-1.8,2.53,13.08,13.08,0,0,1-2.66,2,12.21,12.21,0,0,1-3,1.27c0,.25,0,.49,0,.71s0,.44.07.63a4.65,4.65,0,0,0,.31,1.07,2.77,2.77,0,0,0,.62.92,2.12,2.12,0,0,0,1,.56,3.32,3.32,0,0,0,1.45,0,6.14,6.14,0,0,0,3-1.41,12.11,12.11,0,0,0,2.46-2.82,15.57,15.57,0,0,0,1.69-3.57l.5.25a13.61,13.61,0,0,1-1.88,4.2,12.17,12.17,0,0,1-2.87,3A8.22,8.22,0,0,1,595.42,961.73Zm-2.81-5.82a17.06,17.06,0,0,0,2.07-1.33,17.42,17.42,0,0,0,2.14-1.91,8.94,8.94,0,0,0,1.58-2.25,3.84,3.84,0,0,0,.38-2.34,1.2,1.2,0,0,0-.25-.6.7.7,0,0,0-.66-.11,3.32,3.32,0,0,0-1.75,1,9.47,9.47,0,0,0-1.61,2.08,15.27,15.27,0,0,0-1.24,2.68A11.35,11.35,0,0,0,592.61,955.91Zm5.93-12a1.9,1.9,0,0,1-1.08-.24,5.43,5.43,0,0,1-1.25-.85,8,8,0,0,1-1.08-1.19,3,3,0,0,1-.56-1.21,1.49,1.49,0,0,1,0-.7.93.93,0,0,1,.4-.54,7.91,7.91,0,0,0,1.46,1.57c.52.43,1.12.87,1.8,1.33a16.44,16.44,0,0,0,1.9-1.21,8.56,8.56,0,0,0,1.52-1.49.72.72,0,0,1,.35.28.93.93,0,0,1,.13.35,1.64,1.64,0,0,1-.31,1.17,6.77,6.77,0,0,1-1,1.24,8.16,8.16,0,0,1-1.28,1A3.14,3.14,0,0,1,598.54,943.93Z"/><path class="cls-2" d="M604,969.23a.79.79,0,0,1-.63-.19,2.39,2.39,0,0,1-.55-.55,1.75,1.75,0,0,1-.24-.39c.09-1.25.19-2.37.32-3.37s.25-2,.37-3.06.19-2.25.22-3.63,0-3.08-.07-5.1-.26-4.51-.54-7.47a.94.94,0,0,1,0-.5c.05-.11.22-.2.51-.26a1.62,1.62,0,0,1,1.46.24,1.88,1.88,0,0,1,.64,1,13.31,13.31,0,0,1,.17,1.85c0,.89,0,2,0,3.19a17.49,17.49,0,0,1,1-2.74,9.35,9.35,0,0,1,1.68-2.51,4.54,4.54,0,0,1,2.43-1.39,3.46,3.46,0,0,1,2.87.57,4.35,4.35,0,0,1,1.67,2.75,7.91,7.91,0,0,1,0,3.11,11.7,11.7,0,0,1-1.14,3.34,9.46,9.46,0,0,1-2.22,2.84,7.11,7.11,0,0,1-3.25,1.6,4.45,4.45,0,0,1-1.57.11c-.42-.06-.64-.16-.67-.31s0-.17.23-.22l.63-.15a5.94,5.94,0,0,0,2.62-1.3,8.93,8.93,0,0,0,2-2.37,9.44,9.44,0,0,0,1.1-2.91,7.49,7.49,0,0,0,0-2.91,3.88,3.88,0,0,0-.91-1.86,1.73,1.73,0,0,0-1.75-.47,3.43,3.43,0,0,0-1.74,1,8.62,8.62,0,0,0-1.41,1.89,14.49,14.49,0,0,0-1,2.23,10.58,10.58,0,0,0-.58,2c-.05,1.89-.11,3.72-.19,5.49s-.16,3.37-.27,4.81-.23,2.64-.37,3.57a5,5,0,0,1-.47,1.77A.66.66,0,0,1,604,969.23Z"/><path class="cls-2" d="M621.3,956.62a2.69,2.69,0,0,1-2.07-.22,3,3,0,0,1-1.37-2,7.83,7.83,0,0,1-.18-2.91,14.09,14.09,0,0,1,.78-3.35,17.66,17.66,0,0,1,1.56-3.25,12,12,0,0,1,2.16-2.63,6.59,6.59,0,0,1,2.62-1.48,3.77,3.77,0,0,1,2.52.11,2.42,2.42,0,0,1,1.46,1.68,1.38,1.38,0,0,1-.16,1.34,2.26,2.26,0,0,1-1.18.67c0-.2,0-.42,0-.66a5,5,0,0,0-.12-.63,2.61,2.61,0,0,0-.77-1.31,1.56,1.56,0,0,0-1.52-.21,3.73,3.73,0,0,0-1.85,1.24,9.64,9.64,0,0,0-1.5,2.4,16.57,16.57,0,0,0-1,3,15.74,15.74,0,0,0-.46,3,8.09,8.09,0,0,0,.21,2.46c.25.93.7,1.3,1.34,1.13a3.14,3.14,0,0,0,1.59-1.25,15.44,15.44,0,0,0,1.45-2.5c.46-1,.89-2,1.28-3s.72-2,1-2.8c.05-.17.09-.25.12-.26a5.27,5.27,0,0,1,.59,0,2,2,0,0,1,.67.13.54.54,0,0,1,.37.39,2,2,0,0,1-.08,1c-.12.43-.24.91-.37,1.46a15.87,15.87,0,0,0-.33,1.64,3.47,3.47,0,0,0,0,1.45,2.34,2.34,0,0,0,.57,1,1,1,0,0,0,1.07.26q1-.25,2.16-2.1a17.23,17.23,0,0,0,2-5.08l.45.26a13.15,13.15,0,0,1-1,3.91,10.33,10.33,0,0,1-1.9,3,5.19,5.19,0,0,1-2.41,1.53,2.42,2.42,0,0,1-2.16-.25,2.73,2.73,0,0,1-1.09-1.54,4.67,4.67,0,0,1-.1-.49c0-.19,0-.38-.08-.57a18.24,18.24,0,0,1-2,3.86A4.25,4.25,0,0,1,621.3,956.62ZM625.69,938a.91.91,0,0,1-.5-.36,1.36,1.36,0,0,1-.25-.43,2.53,2.53,0,0,1,.1-1.12,12.39,12.39,0,0,1,.55-1.71,7.59,7.59,0,0,1,.86-1.63,2,2,0,0,1,1-.85.71.71,0,0,1,.58.08,1.42,1.42,0,0,1,.51.8c-.66,1-1.22,1.88-1.69,2.72A24.69,24.69,0,0,0,625.69,938Z"/><path class="cls-2" d="M647.21,947.83a2.58,2.58,0,0,1-2.05,0,2.34,2.34,0,0,1-1.16-1.4,5.62,5.62,0,0,1-.25-1.63c0-.6,0-1.21,0-1.83a6.47,6.47,0,0,0-.31-1.75,1.88,1.88,0,0,0-.86-1.21,1.44,1.44,0,0,0-1.12,0,3.72,3.72,0,0,0-1.92,1.63,13.93,13.93,0,0,0-1.42,3c-.39,1.16-.73,2.33-1,3.51s-.53,2.24-.74,3.17a3.18,3.18,0,0,1-1.14.16,1.76,1.76,0,0,1-1-.31,5,5,0,0,1,0-1.21c0-.69.08-1.53.11-2.52s0-2,0-3a9.88,9.88,0,0,0-.47-2.68,2.51,2.51,0,0,1,.51-.71,2.06,2.06,0,0,1,.87-.57.87.87,0,0,1,1.25.6,9.92,9.92,0,0,1,.31,2c.08.95.12,2,.11,3a33.57,33.57,0,0,1,1.17-3.56,13.72,13.72,0,0,1,1.73-3.2,4.75,4.75,0,0,1,2.35-1.84,2.28,2.28,0,0,1,2.31.31,4.26,4.26,0,0,1,1.35,2,6.11,6.11,0,0,1,.32,2.12c0,.7-.07,1.38-.13,2a4.79,4.79,0,0,0,.21,1.86,1.51,1.51,0,0,0,.65.93,1,1,0,0,0,.85,0,2.68,2.68,0,0,0,1.48-1.41,11.46,11.46,0,0,0,1-2.65,26,26,0,0,0,.61-3l.54.32a19,19,0,0,1-.64,3.6,8.57,8.57,0,0,1-1.3,2.77A4.31,4.31,0,0,1,647.21,947.83Z"/><path class="cls-2" d="M663.64,942.31a2.48,2.48,0,0,1-1.91,0,5,5,0,0,1-1.74-1.2,11.08,11.08,0,0,1-1.4-1.81,10.5,10.5,0,0,1-.93-1.76,4.8,4.8,0,0,0,1-.63,7.49,7.49,0,0,0,1.24-1.17,4.4,4.4,0,0,0,.88-1.54,2.4,2.4,0,0,0-.06-1.71,1.46,1.46,0,0,0-1-.92,2,2,0,0,0-1.37.07,3.42,3.42,0,0,0-1.7,1.54,8.19,8.19,0,0,0-.9,2.58,20.33,20.33,0,0,0-.31,3.05c0,1,0,2,0,2.94s.08,1.66.1,2.26a1.57,1.57,0,0,1-.24,1.07,1.69,1.69,0,0,1-.71.54.94.94,0,0,1-1-.14,3.18,3.18,0,0,1-.8-1.09q-.35-.72-.66-1.5a18.69,18.69,0,0,1-1.07-4.35,44.53,44.53,0,0,1-.37-5.47c0-1.94,0-3.86.19-5.74s.35-3.63.62-5.22a24.37,24.37,0,0,1,.94-3.92c.37-1,.75-1.61,1.17-1.78s.66,0,1,.34a4.17,4.17,0,0,1,.93,1.46,8.49,8.49,0,0,1,.53,2.83,14.85,14.85,0,0,1-.29,3.51,17.8,17.8,0,0,1-1.12,3.67,15.73,15.73,0,0,1-1.91,3.35,35.58,35.58,0,0,0,.46,6.08,22.73,22.73,0,0,0,1.2,4.63c0-1.06,0-2.25.12-3.55a26.3,26.3,0,0,1,.5-3.86,11.86,11.86,0,0,1,1.18-3.33,4.06,4.06,0,0,1,2.06-1.94,3.2,3.2,0,0,1,2.52,0,3.12,3.12,0,0,1,1.76,1.8,3.26,3.26,0,0,1,.18,2.09,4.69,4.69,0,0,1-.88,1.79,7.32,7.32,0,0,1-1.34,1.33,6,6,0,0,1-1.23.75,8.17,8.17,0,0,0,.6.91,10.62,10.62,0,0,0,1.1,1.31,5.51,5.51,0,0,0,1.35,1,1.58,1.58,0,0,0,1.4.09,3.1,3.1,0,0,0,1.59-1.51,10,10,0,0,0,.9-2.68,22.29,22.29,0,0,0,.36-3.43l.48.2a12.29,12.29,0,0,1-.2,3.77,11.28,11.28,0,0,1-1.25,3.32A4.25,4.25,0,0,1,663.64,942.31ZM652.87,930a16.77,16.77,0,0,0,1.61-4,17.85,17.85,0,0,0,.6-3.84,6.93,6.93,0,0,0-.29-2.6,1.46,1.46,0,0,0-.11-.24.09.09,0,0,0-.12,0c-.23.09-.46.65-.7,1.67a34.91,34.91,0,0,0-.64,3.94C653,926.49,652.92,928.18,652.87,930Z"/><path class="cls-2" d="M671.43,939.4a2.74,2.74,0,0,1-2.08.14,3,3,0,0,1-1.7-1.75A8,8,0,0,1,667,935a14.42,14.42,0,0,1,.2-3.43,16.38,16.38,0,0,1,1-3.47,11.58,11.58,0,0,1,1.68-3,6.39,6.39,0,0,1,2.32-1.9,3.8,3.8,0,0,1,2.5-.34,2.42,2.42,0,0,1,1.73,1.41,1.43,1.43,0,0,1,.08,1.35,2.37,2.37,0,0,1-1.05.86c0-.2-.09-.41-.16-.64a5.31,5.31,0,0,0-.22-.61,2.62,2.62,0,0,0-1-1.15,1.58,1.58,0,0,0-1.53.05,3.72,3.72,0,0,0-1.61,1.55,10,10,0,0,0-1.07,2.62,16.68,16.68,0,0,0-.5,3.11,15.07,15.07,0,0,0,.06,3,8,8,0,0,0,.63,2.39c.41.87.91,1.17,1.52.88a3.09,3.09,0,0,0,1.34-1.5,15.31,15.31,0,0,0,1-2.71c.29-1.05.54-2.11.74-3.18s.38-2,.51-2.93c0-.18,0-.27.08-.28a4,4,0,0,1,.58-.11,2.2,2.2,0,0,1,.68,0,.59.59,0,0,1,.44.32,2,2,0,0,1,.08,1q-.06.66-.12,1.5c0,.56-.05,1.12,0,1.67a3.47,3.47,0,0,0,.3,1.43,2.2,2.2,0,0,0,.73.86,1,1,0,0,0,1.1.08,4.65,4.65,0,0,0,1.76-2.44,17.6,17.6,0,0,0,1.13-5.36l.5.18a13.24,13.24,0,0,1-.33,4,10.57,10.57,0,0,1-1.36,3.25,5.31,5.31,0,0,1-2.11,1.92,2.4,2.4,0,0,1-2.17.12,2.71,2.71,0,0,1-1.34-1.33,2.21,2.21,0,0,1-.18-.46l-.18-.55a18,18,0,0,1-1.27,4.14A4.22,4.22,0,0,1,671.43,939.4Z"/><path class="cls-2" d="M711.13,920a3.12,3.12,0,0,1-2.11.14,18.5,18.5,0,0,1-3.26-1c-1.23-.5-2.5-1.09-3.8-1.76s-2.55-1.36-3.75-2.08-2.22-1.39-3.09-2L698,925.05a2.06,2.06,0,0,1-.09,1.45,2.86,2.86,0,0,1-.81,1c-.35.26-.71.5-1.07.72-.07-.76-.19-1.6-.36-2.53s-.37-2.06-.62-3.37-.57-2.9-1-4.76-.86-4.08-1.4-6.66-1.18-5.61-1.9-9.1c0-.21-.1-.5-.17-.87a3.06,3.06,0,0,0-.34-.93,1,1,0,0,0-.49-.46.82.82,0,0,0-.73.15,2.64,2.64,0,0,0-1.12,1.5,7.14,7.14,0,0,0-.33,2.33,10.72,10.72,0,0,0,.29,2.48,7.22,7.22,0,0,0,.75,2,3.82,3.82,0,0,0,.81,1,2.12,2.12,0,0,1-1.8.36,2.28,2.28,0,0,1-1.19-1,4.9,4.9,0,0,1-.65-2.53,10,10,0,0,1,.46-3,10.91,10.91,0,0,1,1.25-2.69,5.34,5.34,0,0,1,1.67-1.73,1.46,1.46,0,0,1,1.44-.21,2.23,2.23,0,0,1,.93.87,3.28,3.28,0,0,1,.33.74c.09.26.16.52.23.77l2.45,10.22a6.19,6.19,0,0,1,.47-1.87c.26-.64.54-1.37.84-2.17.5-1.33,1-2.83,1.49-4.49s.9-3.36,1.23-5.07a29.64,29.64,0,0,0,.56-4.72,1.67,1.67,0,0,1,.62.54c.23.29.39.52.5.69a4.55,4.55,0,0,1,.47,2.64A19.45,19.45,0,0,1,700,900a43.5,43.5,0,0,1-1.39,4.18c-.56,1.44-1.13,2.81-1.71,4.13s-1.12,2.48-1.61,3.49c1.28.7,2.51,1.36,3.69,2s2.41,1.17,3.67,1.68a35.15,35.15,0,0,0,4.2,1.36,53.78,53.78,0,0,0,5.34,1.08A2.36,2.36,0,0,1,712,919,2.23,2.23,0,0,1,711.13,920Z"/><path class="cls-2" d="M727.53,907.13A4.05,4.05,0,0,1,724,908a5.05,5.05,0,0,1-2.78-2.05,12.25,12.25,0,0,1-1.11,4.79,8.36,8.36,0,0,1-2.75,3.38,4.1,4.1,0,0,1-6.16-.89,8.59,8.59,0,0,1-1.33-3.35,14.05,14.05,0,0,1-.18-4.11,12.61,12.61,0,0,1,1-3.92,6.24,6.24,0,0,1,2.11-2.73,3,3,0,0,1,1.54-.55,2,2,0,0,1,1.63,1.06,4.66,4.66,0,0,1,.84,2.64,8.51,8.51,0,0,1-.52,3,13.17,13.17,0,0,1-1.52,3,12.2,12.2,0,0,1-2.19,2.47c.1.23.21.44.31.64a5.37,5.37,0,0,0,.34.53,4.15,4.15,0,0,0,1,1,2.47,2.47,0,0,0,1.4.46,3,3,0,0,0,1.72-.65,6.68,6.68,0,0,0,2.39-3.37,14.64,14.64,0,0,0,.79-4.74,10.7,10.7,0,0,1-.77-3.15,13.2,13.2,0,0,1,.09-3.44,11.24,11.24,0,0,1,1-3.13,6,6,0,0,1,1.9-2.26,3,3,0,0,1,1.54-.55,2,2,0,0,1,1.63,1.06,4.78,4.78,0,0,1,.86,3.44,9.12,9.12,0,0,1-1.37,3.74,14.15,14.15,0,0,1-2.75,3.25c.1.23.21.44.31.64s.22.37.33.53a5.29,5.29,0,0,0,1.07,1.1,2.64,2.64,0,0,0,1.43.55,2.79,2.79,0,0,0,1.73-.61,6.15,6.15,0,0,0,2.06-2.6,12.57,12.57,0,0,0,1-3.73,16.46,16.46,0,0,0,0-4l.55,0a14.1,14.1,0,0,1,.14,4.66,12.44,12.44,0,0,1-1.28,4.11A8,8,0,0,1,727.53,907.13Zm-15.22,2.92a15.85,15.85,0,0,0,1.28-2.1,16.82,16.82,0,0,0,1.11-2.65,9.49,9.49,0,0,0,.45-2.71,3.89,3.89,0,0,0-.68-2.28,1.18,1.18,0,0,0-.48-.43.71.71,0,0,0-.64.19,3.42,3.42,0,0,0-1.16,1.64,9.81,9.81,0,0,0-.54,2.58,15.36,15.36,0,0,0,0,3A11.77,11.77,0,0,0,712.31,910.05Zm10.12-7.13a22.85,22.85,0,0,0,1.28-2,15.53,15.53,0,0,0,1.09-2.38,7.34,7.34,0,0,0,.45-2.44,3.61,3.61,0,0,0-.66-2.17,1.23,1.23,0,0,0-.55-.45.72.72,0,0,0-.7.16,3.65,3.65,0,0,0-1.36,2.22,11,11,0,0,0-.27,3.41A13.84,13.84,0,0,0,722.43,902.92Z"/><path class="cls-2" d="M16.66,811.88l51.62-22.73,8,18.23q3.18,7.23,1.28,12.83T69,828.74a15.37,15.37,0,0,1-8.16,1.42,13,13,0,0,1-6.8-2.93,17.32,17.32,0,0,1-4.74-6.5l1.21,1.16.24.54a9.61,9.61,0,0,1,.77,5.42,10.19,10.19,0,0,1-3.36,5.56L32.61,848.09l-1.4-3.18,14.66-13.55q3.43-3.12,3.42-6.23a18.41,18.41,0,0,0-1.82-7.22l-6-13.58L17.91,814.72Zm27.68-8.8L51,818.21q2.67,6.07,7,8t9.7-.49q5.43-2.38,6.88-6.82t-1.22-10.51l-6.67-15.13Z"/><path class="cls-2" d="M38.88,860.26l49.63-26.78,15,27.8-2.75,1.48L87.24,837.69l-20.35,11,12.76,23.64-2.74,1.48L64.15,850.15,43.1,861.51l13.53,25.07-2.75,1.48Z"/><path class="cls-2" d="M61,899.91l47.61-30.25,1.66,2.62-45,28.57,15,23.55-2.63,1.68Z"/><path class="cls-2" d="M80,929.87l58.53-16,1.82,2.42-31.41,52.1-2-2.71L116,950.64l.44,1.79L97.09,926.64l1.81,1.22L82,932.52Zm55.79-12.17-34.87,9.66-.59-1.59,17.86,23.79-1.09-.66,18.78-31.08Z"/><path class="cls-2" d="M112.73,972.87l35.36-4.55-.6.53,8-32.82,2.51,2.8-7.3,30-.59-.66,30.37-4.24,2.51,2.8-33.44,4.42.6-.54-8.4,34.61-2.52-2.81,7.9-32.17,1,1.16-32.89,4.31Z"/><path class="cls-2" d="M145.74,1009.45l54.82-26,2.22,2.06-21.8,56.8L178.5,1040l6.33-16.41.75,1.68-23.59-22,2,.88-15.83,7.56Zm52.79-21.75-32.63,15.61-.86-1.46,21.75,20.3-1.19-.46,13-33.89Z"/><path class="cls-2" d="M207,1063.5a22.33,22.33,0,0,1-8-10.51,21.81,21.81,0,0,1-.22-12.73,44.88,44.88,0,0,1,18.78-24.47,21.84,21.84,0,0,1,12.33-3,22.32,22.32,0,0,1,12.22,5,24,24,0,0,1,6.74,7.65,22.55,22.55,0,0,1,2.58,9.19l-3,1.23A24.5,24.5,0,0,0,246,1027a20.65,20.65,0,0,0-5.89-6.69q-7.78-6-15.89-3.78t-15.51,11.84q-7.41,9.64-7.46,18.08t7.73,14.41a20.66,20.66,0,0,0,8,4,24.86,24.86,0,0,0,9.16.13l-.41,3.2a22.39,22.39,0,0,1-9.58-.13A23.92,23.92,0,0,1,207,1063.5Zm36.31-50.08,1.19-16.23,2.17,1.67-.11,13.23,12.76-3.53,2.16,1.67-15.36,5.35Z"/><path class="cls-2" d="M233.81,1082.29l29.64-48,2.26,1.4,3,64.17-1.32-.82,27.88-45.12,2.45,1.52-29.65,48-2.2-1.36-2.95-64.17,1.26.77-27.88,45.13Z"/><path class="cls-2" d="M282.94,1111.18l26.16-50,2.75,1.44-26.16,50ZM311.46,1057l14-8,3.67,1.91-15.21,7.4Z"/><path class="cls-2" d="M355.77,1144.09a38.57,38.57,0,0,1-4-6.63,45,45,0,0,1-2.39-6.07l.9.35a21,21,0,0,1-9.5,3.71,20.23,20.23,0,0,1-10.18-1.38,19.79,19.79,0,0,1-7.33-4.73A12.23,12.23,0,0,1,320,1123a13.33,13.33,0,0,1,.9-7.26,15.06,15.06,0,0,1,6.22-7.64,43.17,43.17,0,0,1,11-4.35L341,1103l-.57.45a45.3,45.3,0,0,1-2.13-9,13.8,13.8,0,0,1,.89-6.62,12,12,0,0,1,3.55-5,10.38,10.38,0,0,1,5.27-2.26,12.26,12.26,0,0,1,6.27.91,10.62,10.62,0,0,1,5.91,5.4,10.1,10.1,0,0,1,0,8.39,12.82,12.82,0,0,1-2.85,4.37,16.37,16.37,0,0,1-5.11,3.26,54.38,54.38,0,0,1-8.7,2.7l.52-.92,7.42,23.28-.75-.3a30.71,30.71,0,0,0,6-6.79,52.84,52.84,0,0,0,5.2-9.77l2.82,1.12a56.06,56.06,0,0,1-6,10.91,39.65,39.65,0,0,1-7.15,7.79l.4-1.39a45.24,45.24,0,0,0,2.5,6.29,35.26,35.26,0,0,0,4,6.54Zm-24.08-12.95a17.58,17.58,0,0,0,9.21,1.22,19.6,19.6,0,0,0,8.61-3.68L349,1130l-8-24.62,1,.38-2.94.81a55.84,55.84,0,0,0-7.34,2.46,16,16,0,0,0-4.84,3.07,13.24,13.24,0,0,0-3,4.69,9.55,9.55,0,0,0,.16,8.29Q325.92,1128.85,331.69,1131.14Zm21.42-46.83a8.43,8.43,0,0,0-6.62-.14A8.19,8.19,0,0,0,342,1089a10.29,10.29,0,0,0-.77,3.52,15.76,15.76,0,0,0,.52,4.17q.59,2.43,1.76,6.26l-1.14-.11a44.8,44.8,0,0,0,10.13-3.5,9.73,9.73,0,0,0,4.68-5,7.85,7.85,0,0,0,.18-6A7.15,7.15,0,0,0,353.11,1084.31Z"/><path class="cls-2" d="M381.35,1151.6l34.94-49.6,2.94.7,9,60.17-3.3-.79-2.57-17.41,1.48,1.1-31.36-7.54,2.17-.22-10.06,14.37Zm35.25-44.92-20.72,29.66-1.47-.85,28.93,7-1.26.2-5.33-35.93Z"/><path class="cls-2" d="M437.81,1179.17c-.78-.12-1.59-.29-2.43-.5a14.38,14.38,0,0,1-2.58-.93l.48-3.08c.89.35,1.7.65,2.44.9a13,13,0,0,0,2.12.54,6.33,6.33,0,0,0,5.58-1.56c1.49-1.39,2.49-3.77,3-7.14l9-57.63,3.06.48-9,57.78a19.22,19.22,0,0,1-2.15,6.63,8.65,8.65,0,0,1-9.52,4.51Z"/><path class="cls-2" d="M486,1170.66q-10.1-.77-14.51-6.8T467.9,1147l2.65-34.7,3.09.23L471,1146.73q-.75,9.74,2.9,14.87t12.33,5.79q8.16.63,12.8-3.87t5.38-14.24l2.62-34.22,3.09.24L507.5,1150q-.83,10.85-6.34,16.12T486,1170.66Z"/><path class="cls-2" d="M523.52,1171.84l-1.73-56.38,19.92-.61q7.89-.24,12.37,3.63t4.7,11.14a15.33,15.33,0,0,1-1.75,8.1,13,13,0,0,1-5.27,5.2,17.24,17.24,0,0,1-7.8,2l1.53-.69.59,0a9.6,9.6,0,0,1,5.32,1.32,10.16,10.16,0,0,1,3.89,5.21l7.77,19.93-3.47.1-7.07-18.67c-1.07-2.9-2.57-4.74-4.49-5.5a18.45,18.45,0,0,0-7.37-1l-14.83.45.78,25.75Zm2.21-29,16.53-.51q6.65-.21,10-3.47t3.19-9.18q-.18-5.91-3.74-8.93T541.51,1118l-16.53.51Z"/><path class="cls-2" d="M592.62,1167.2l-29.58-53,3.3-.44L594.93,1165l-1.61.22,14.28-56.88,3.22-.43L596,1166.75Z"/><path class="cls-2" d="M629.43,1161.24l-12.85-54.92,30.76-7.19.71,3-27.74,6.48,5.26,22.52,26.17-6.12.71,3-26.16,6.12,5.44,23.3,27.75-6.49.71,3Zm.93-63.07,5.39-15.23,4-.94-6.67,15.53Z"/><path class="cls-2" d="M674.49,1150.06l-18.28-53.35,14.94-5.12a29.19,29.19,0,0,1,14.51-1.59,20.74,20.74,0,0,1,11.45,6.09q4.9,5,7.89,13.66t2.17,15.67a20.79,20.79,0,0,1-5.29,11.87,29.33,29.33,0,0,1-12.44,7.65Zm1.93-4,11.73-4q11-3.79,14.4-11.58t-.69-19.68q-4.08-11.88-11.51-15.93t-18.47-.26l-11.73,4Z"/><path class="cls-2" d="M743.32,1124.24a30,30,0,0,1-10.68,2.93,25.63,25.63,0,0,1-9.77-1.28l.21-3.26a36.63,36.63,0,0,0,6.35,1.26,19,19,0,0,0,5.89-.33,31.34,31.34,0,0,0,6.56-2.27q6.57-3,8.64-7.44a10.51,10.51,0,0,0-.14-9.23,8.91,8.91,0,0,0-5.25-5.16q-3.39-1.08-9.72.33l-7.31,1.6q-7.17,1.54-11.76-.14t-7.13-7.2a15,15,0,0,1,2-16.33A21.08,21.08,0,0,1,719,1072a26.13,26.13,0,0,1,9.82-2.49,20.53,20.53,0,0,1,9.35,1.78l-.14,3.23a20.56,20.56,0,0,0-17.66.46q-6.18,2.83-8.39,7.64a11.56,11.56,0,0,0,.22,10.11,10,10,0,0,0,5.4,5.58c2.29.85,5.36.87,9.2,0l7.38-1.63q7.68-1.68,12.18-.28t7,6.79a14.38,14.38,0,0,1,1.31,8,14.13,14.13,0,0,1-3.39,7.37A22.46,22.46,0,0,1,743.32,1124.24Z"/><path class="cls-2" d="M771.54,1109.7l-28-48.94,2.69-1.54,13,22.77.12-.07,10.41-36.2,3.91-2.24-11.75,40.1-1.12-2.12,42.88,9.83-4,2.31-38.74-9-.12.08,13.43,23.46Z"/><path class="cls-2" d="M812.45,1085.38,780.34,1039l26-18,1.77,2.57-23.42,16.22,13.16,19,22.09-15.3,1.78,2.56-22.09,15.3,13.62,19.67,23.42-16.23,1.78,2.57Zm-22.28-59-.59-16.14,3.4-2.35-.51,16.9Z"/><path class="cls-2" d="M865.66,1046.22,827.6,1004.6l2-1.84,53.7,25.47-1.52,1.4-20.53-55.81,2-1.8,38.06,41.63-2.12,1.94-35.85-39.2,1.31-1.2L884.45,1029l-1.91,1.74-52-24.57,1.31-1.19,35.9,39.26Z"/><path class="cls-2" d="M910.64,1004.11,883.2,950l2-2.27L942.56,968l-2.25,2.54-16.57-5.89,1.66-.79L904,988l.83-2,8,15.62Zm-23.16-52.2L904,984.12l-1.43.9,19.7-22.29-.42,1.21L887.58,951.8Z"/><path class="cls-2" d="M960,945.75a30.28,30.28,0,0,1-8,7.71,25.82,25.82,0,0,1-9.17,3.58l-1.4-3a37.57,37.57,0,0,0,6.18-2,18.85,18.85,0,0,0,5-3.13,31.55,31.55,0,0,0,4.66-5.15q4.29-5.8,4-10.69a10.5,10.5,0,0,0-4.57-8,8.86,8.86,0,0,0-7.09-2q-3.48.68-8.36,5l-5.63,4.92q-5.55,4.82-10.37,5.55t-9.72-2.87a15,15,0,0,1-6.12-15.27,21.16,21.16,0,0,1,4-8.79,26.06,26.06,0,0,1,7.4-6.91,20.52,20.52,0,0,1,9-3l1.44,2.9a20.57,20.57,0,0,0-15.26,8.91q-4,5.46-3.67,10.74a11.61,11.61,0,0,0,5.07,8.76q3.79,2.8,7.42,2.27T933,931l5.68-5q5.91-5.17,10.54-6.11c3.09-.63,6.21.23,9.39,2.58a14.29,14.29,0,0,1,5,6.36,14,14,0,0,1,.58,8.09A22.49,22.49,0,0,1,960,945.75Z"/><path class="cls-2" d="M935.08,872.3l-7-14.54,2.16-3.53,6.33,15.68Zm40.36,51.22L939.1,874.94l1.58-2.58,60,10.1-1.77,2.89-17.35-3,1.51-1.07-16.89,27.48.46-2.13,10.55,14Zm-31.79-47.43L965.42,905l-1.26,1.13,15.58-25.34-.21,1.26L943.73,876Z"/><path class="cls-2" d="M957.25,833l-16.17,1.81,1.24-2.43,13-2.34-5.82-11.88,1.24-2.44,8.09,14.12Zm47,42.68-2.21-1.12-31.81-53.69,1.65.83L956.7,851.54l-2.78-1.41,16.49-32.53,2.21,1.12,31.77,53.76-1.64-.83L1018.26,841l2.79,1.41Z"/><path class="cls-2" d="M1026.17,831l-52-21.74,12.18-29.15,2.88,1.2-11,26.29,21.33,8.91,10.36-24.79,2.87,1.2-10.35,24.8,22.07,9.22,11-26.29,2.88,1.2Z"/><ellipse class="cls-1" cx="23.67" cy="624.25" rx="11.74" ry="11.56" transform="translate(-461.43 230.65) rotate(-48.77)"/><path class="cls-1" d="M43.86,601.43a51.32,51.32,0,0,1-7,6.65,51.94,51.94,0,0,1-8.46,5.4"/><path class="cls-1" d="M43.8,601.49a51.37,51.37,0,0,0-9.91,16.91"/><path class="cls-1" d="M46.34,643.87a51.23,51.23,0,0,1-11.92-15.56"/><path class="cls-1" d="M46.28,643.8a51.51,51.51,0,0,0-16.83-10"/><path class="cls-1" d="M3.8,646.77a51.26,51.26,0,0,1,15.55-11.93"/><path class="cls-1" d="M3.86,646.71a51.42,51.42,0,0,0,5.73-7.77,51.18,51.18,0,0,0,4.31-9.06"/><path class="cls-1" d="M1,603.94a51.32,51.32,0,0,1,6.65,7A51.14,51.14,0,0,1,13,619.4"/><path class="cls-1" d="M1.05,604A50.92,50.92,0,0,0,18,613.91"/><ellipse class="cls-1" cx="1021.04" cy="629.23" rx="11.56" ry="11.74" transform="translate(-161.58 828.89) rotate(-41.23)"/><path class="cls-1" d="M1000.85,606.41a50.72,50.72,0,0,0,7,6.65,51.27,51.27,0,0,0,8.46,5.4"/><path class="cls-1" d="M1000.91,606.47a51.37,51.37,0,0,1,9.91,16.91"/><path class="cls-1" d="M998.37,648.85a50.9,50.9,0,0,0,11.92-15.56"/><path class="cls-1" d="M998.43,648.79a50.25,50.25,0,0,1,7.77-5.74,50.85,50.85,0,0,1,9.06-4.31"/><path class="cls-1" d="M1040.91,651.75a51.26,51.26,0,0,0-15.55-11.93"/><path class="cls-1" d="M1040.85,651.69a51.51,51.51,0,0,1-10-16.83"/><path class="cls-1" d="M1043.72,608.92a51.21,51.21,0,0,0-12,15.46"/><path class="cls-1" d="M1043.66,609a51.17,51.17,0,0,1-16.91,9.92"/></g></g></svg>