<svg xmlns="http://www.w3.org/2000/svg" viewBox="0 0 737.87 690.17"><defs><style>.cls-1,.cls-3,.cls-4{fill:none;}.cls-1{stroke:#705642;}.cls-1,.cls-3,.cls-4,.cls-5{stroke-miterlimit:10;stroke-width:3px;}.cls-2{fill:#705642;}.cls-3{stroke:#dbc87b;}.cls-4,.cls-5{stroke:#aa8963;}.cls-5{fill:#aa8963;}</style></defs><g id="Vrstva_2" data-name="Vrstva 2"><g id="Vrstva_1-2" data-name="Vrstva 1"><path class="cls-1" d="M73.58,515.73C45.19,456.25,26.19,392.25,31.19,326.25c6-75,35-147,83.6-203.94"/><path class="cls-1" d="M115.63,575.64c-15.84-19.17-31.33-39-42.82-61.52"/><path class="cls-1" d="M708.23,483c-8.7,15.29-15.58,31.65-24.64,46.69a413.41,413.41,0,0,1-29,42.7"/><path class="cls-1" d="M657.85,127.63a390.8,390.8,0,0,1,38.54,60.11,365.19,365.19,0,0,1,26.45,66,342,342,0,0,1,12.71,70.23,349.79,349.79,0,0,1-3.26,76.23,308.85,308.85,0,0,1-20.49,74.6q-1.89,4.5-3.94,8.93"/><path class="cls-2" d="M51.19,449.85c.31-11.56,11.17-18.8,18.07-26.68S80,405.38,81.56,395.1a96,96,0,0,0,1-17.53,1.5,1.5,0,0,0-2.25-1.29c-4.8,3.4-9.78,6.64-14.34,10.35-4.36,3.55-7.46,8.18-10.25,13-5.51,9.52-9.83,20.06-11.4,31-.86,5.92-.74,12.13,2.3,17.46a1.5,1.5,0,0,0,2.59-1.52c-2.51-4.4-2.69-9.57-2.09-14.49a71.58,71.58,0,0,1,3.8-15.17,94.63,94.63,0,0,1,6.62-14.4c2.54-4.54,5.29-9.09,9.2-12.6A79.06,79.06,0,0,1,74,384.43l7.83-5.56-2.26-1.3c.3,10.35-.69,20.92-4.57,30.6a45.27,45.27,0,0,1-8.28,13.38c-3.76,4.19-8.09,7.84-11.65,12.21-3.76,4.61-6.7,10-6.86,16.09-.06,1.93,2.94,1.93,3,0Z"/><path class="cls-2" d="M44.48,434.46c-2.24-3.35-4.37-6.82-6.78-10a38.21,38.21,0,0,0-8.33-7.62c-5.94-4.4-11.66-9.38-15.73-15.61a34.8,34.8,0,0,1-4.84-11.1c-.41-1.76-2.79-1.19-3,.4a152.49,152.49,0,0,0-.93,17.36,28.94,28.94,0,0,0,3.92,14.88,70.12,70.12,0,0,0,9.21,11.62c3.43,3.66,7.34,6.43,12.32,7.43,5.14,1,11.47.72,15.17,5.08,1.25,1.47,3.36-.66,2.12-2.12-3-3.51-7.61-4.55-12-5.15A35.66,35.66,0,0,1,27.89,438a18.24,18.24,0,0,1-5.72-3.75,68.4,68.4,0,0,1-9.36-10.88A25.87,25.87,0,0,1,8,409.22a131.86,131.86,0,0,1,.89-18.74l-2.95.4c1.67,7.15,5.69,13.49,10.69,18.79a73.87,73.87,0,0,0,8.33,7.48c3,2.38,6.48,4.45,9,7.37,3,3.45,5.38,7.64,7.92,11.46,1.07,1.6,3.67.1,2.59-1.52Z"/><path class="cls-2" d="M35.06,377.67c4.71-1.95,8.72-5,12.62-8.26A53.2,53.2,0,0,0,58,358.51a45.25,45.25,0,0,0,6.09-12.94c1.46-5,1.7-10.19,2.14-15.38.46-5.39,1.49-11.14,5.43-15.15a1.51,1.51,0,0,0-.31-2.35c-2.33-1.08-4.27,1.45-5.88,2.84-2,1.74-4,3.51-5.89,5.39s-3.48,3.78-5.12,5.76A44.56,44.56,0,0,1,48.84,332c-7.12,6.1-12.59,14.44-14.1,23.8-1,6.18-1,12.55-1.41,18.79-.11,1.93,2.89,1.92,3,0,.56-9.55.16-19.64,4.75-28.32a40.75,40.75,0,0,1,7.64-10.1c1.62-1.58,3.4-3,5.08-4.46a55.91,55.91,0,0,0,4.76-5.33,70.53,70.53,0,0,1,5.76-5.84c1-.88,1.92-1.74,2.9-2.58l1.56-1.35.69-.59c.32-.27.94-.45.34-.73l-.3-2.36c-7.35,7.49-5.59,18.42-7.38,27.86a43.44,43.44,0,0,1-14,24.31c-4.15,3.7-8.68,7.54-13.87,9.68-1.76.73-1,3.63.8,2.9Z"/><path class="cls-2" d="M32,363a44.86,44.86,0,0,0-7.28-27.3c-2.79-4.19-6-8-8.32-12.47a74.76,74.76,0,0,1-5.22-13.74c-1.5-5.3-2.62-10.71-3.72-16.11a1.52,1.52,0,0,0-2.9,0A133.77,133.77,0,0,0,.05,330a31.6,31.6,0,0,0,1.22,8.37,32.31,32.31,0,0,0,3.93,7.86,74.86,74.86,0,0,0,9.6,12.65,32.42,32.42,0,0,0,7,5.43c2.62,1.46,5.59,2.4,7.83,4.46,1.42,1.3,3.55-.82,2.12-2.13a26.44,26.44,0,0,0-6.61-4,28.77,28.77,0,0,1-6.3-4.1A56.11,56.11,0,0,1,9.2,346.92,53.24,53.24,0,0,1,5,339.79a23.8,23.8,0,0,1-1.87-8.4A105.07,105.07,0,0,1,3.82,314a139.09,139.09,0,0,1,3.61-19.83H4.53c1.93,9.41,3.93,18.89,7.88,27.7A64.32,64.32,0,0,0,20,334.28a44.57,44.57,0,0,1,6.94,12.85A42.37,42.37,0,0,1,29,363c-.11,1.93,2.89,1.93,3,0Z"/><path class="cls-2" d="M40.9,268.48c4.63-10,1.53-20.82-1.78-30.68a117.14,117.14,0,0,1-4.43-16.14A87,87,0,0,1,33.26,205c.07-5.84.85-11.8,3.79-16.95l-2.59-1.51A386.42,386.42,0,0,0,18.55,226c-2.11,6.35-3.63,13-2.69,19.76A25,25,0,0,0,19.08,255c1.68,2.84,3.75,5.43,5.62,8.14A160.37,160.37,0,0,1,36.39,283c.85,1.73,3.44.22,2.59-1.51A162.4,162.4,0,0,0,29.1,264.3C25.61,259,20.87,254,19.28,247.78s-.33-13,1.59-19.17c2-6.44,4.48-12.76,7-19q4.32-10.89,9.22-21.53c.79-1.72-1.61-3.22-2.59-1.51-5.25,9.19-4.75,20.93-3.42,31.08a94.58,94.58,0,0,0,3.64,16.28c1.68,5.3,3.7,10.51,4.82,16,1.16,5.63,1.28,11.77-1.19,17.09-.81,1.74,1.77,3.27,2.59,1.51Z"/><path class="cls-2" d="M54.58,231.52c3.31-8.12,6.16-16.62,11.25-23.85a52,52,0,0,1,7.91-8.86,87.68,87.68,0,0,1,9.1-6.7c3.39-2.32,6.65-4.9,8.73-8.52l-2.74-1.15c-3.24,10.05-4.64,20.56-7.62,30.68-2.68,9.06-7,19.93-16.1,24.32a56.27,56.27,0,0,1-8.83,2.89l-10,2.95c-1.84.55-1.06,3.44.8,2.9l9.08-2.68c2.85-.84,5.78-1.56,8.56-2.63a25.54,25.54,0,0,0,11.45-9.41c6.28-8.81,8.79-19.75,11.06-30.14,1.33-6.07,2.62-12.16,4.52-18.08A1.51,1.51,0,0,0,89,182.08c-1.85,3.22-4.79,5.49-7.82,7.55a92.52,92.52,0,0,0-9.24,6.79,55.93,55.93,0,0,0-14.08,19.34c-2.18,4.93-4.12,10-6.15,15-.73,1.78,2.17,2.56,2.89.79Z"/><path class="cls-3" d="M541.63,222.06c19.47-13.3,45.41-16.31,67.33-7.48,20.22,8.15,35.72,26,42,46.79,6.88,22.62,1.9,47.77-12.49,66.45a71.27,71.27,0,0,1-114.58-2.46,69.34,69.34,0,0,1-4.28-6.8"/><path class="cls-3" d="M541.82,222.27c22.4,2,40.66,20,44,42.13,3.39,22.43-8.76,45.11-29.77,54a48,48,0,0,1-36,.45"/><ellipse class="cls-4" cx="183.68" cy="260.2" rx="15.32" ry="15.83"/><ellipse class="cls-4" cx="263.59" cy="415.44" rx="15.32" ry="15.83"/><ellipse class="cls-4" cx="410.15" cy="319.95" rx="15.32" ry="15.83"/><ellipse class="cls-5" cx="280.7" cy="288.03" rx="6.18" ry="6.38"/><ellipse class="cls-5" cx="439.25" cy="195.86" rx="6.18" ry="6.38"/><ellipse class="cls-5" cx="400.95" cy="454.25" rx="6.18" ry="6.38"/><ellipse class="cls-5" cx="619.51" cy="431.78" rx="6.18" ry="6.38"/><path class="cls-2" d="M34.5,313.75c2.59-8.15,5.32-16.7,11.33-23,3.07-3.24,6.72-5.82,10.24-8.54a70.67,70.67,0,0,0,9.68-8.86,66.84,66.84,0,0,0,8.56-12l-2.74-1.16c-.84,5.44-.13,10.86-.2,16.32a26.34,26.34,0,0,1-3.85,13.92C62.69,298,54.14,301.3,46.16,304.7a56,56,0,0,0-13,7.17c-1.52,1.19.61,3.3,2.12,2.12,7.06-5.54,16.09-7.59,23.81-12,8.27-4.7,14-12.44,15.05-22,.69-6.34-.69-12.75.29-19.07.25-1.57-1.84-2.76-2.74-1.16a65.66,65.66,0,0,1-17.51,20.09A91.48,91.48,0,0,0,44,288.28a39.57,39.57,0,0,0-7.27,10.78A112.83,112.83,0,0,0,31.61,313c-.59,1.85,2.31,2.64,2.89.8Z"/><ellipse class="cls-3" cx="263.02" cy="185.59" rx="9.36" ry="9.51"/><path class="cls-3" d="M263.14,160.91a41.8,41.8,0,0,1-3,15.59"/><path class="cls-3" d="M263.13,161a41.28,41.28,0,0,0,3,15.59"/><path class="cls-3" d="M287.29,185.44a41.55,41.55,0,0,1-7.78-.78,41.13,41.13,0,0,1-7.78-2.33"/><path class="cls-3" d="M287.22,185.43a42.11,42.11,0,0,0-7.79.65,41.69,41.69,0,0,0-7.82,2.22"/><path class="cls-3" d="M262.93,209.91A41.26,41.26,0,0,1,266,194.35"/><path class="cls-3" d="M262.94,209.84a41.82,41.82,0,0,0-2.87-15.61"/><path class="cls-3" d="M238.36,185.33a41.28,41.28,0,0,1,15.59,3"/><path class="cls-3" d="M238.43,185.33a40.89,40.89,0,0,0,7.79-.71,41.7,41.7,0,0,0,7.8-2.27"/><ellipse class="cls-3" cx="517.57" cy="473.31" rx="9.36" ry="9.51"/><path class="cls-3" d="M517.69,448.64a41.8,41.8,0,0,1-3,15.59"/><path class="cls-3" d="M517.68,448.71a41.28,41.28,0,0,0,3,15.59"/><path class="cls-3" d="M541.84,473.16a41.26,41.26,0,0,1-15.56-3.11"/><path class="cls-3" d="M541.78,473.16a41.3,41.3,0,0,0-7.8.65,41.75,41.75,0,0,0-7.82,2.21"/><path class="cls-3" d="M517.48,497.64a41.36,41.36,0,0,1,3.11-15.57"/><path class="cls-3" d="M517.49,497.57A41.82,41.82,0,0,0,514.62,482"/><path class="cls-3" d="M492.91,473.05a41.8,41.8,0,0,1,15.59,3"/><path class="cls-3" d="M493,473.06a41.28,41.28,0,0,0,15.59-3"/><ellipse class="cls-3" cx="152.7" cy="457.97" rx="10.85" ry="11.03" transform="translate(-285.07 254.47) rotate(-46.63)"/><path class="cls-3" d="M132,438.22a48.64,48.64,0,0,1,6,6.81,47.76,47.76,0,0,1,4.76,8.13"/><path class="cls-3" d="M132.05,438.29a49.42,49.42,0,0,0,7.13,5.6,48.13,48.13,0,0,0,8.39,4.29"/><path class="cls-3" d="M171.9,437.39a48.26,48.26,0,0,1-15,10.64"/><path class="cls-3" d="M171.84,437.44a48.11,48.11,0,0,0-10,15.44"/><path class="cls-3" d="M173.13,477.41a48.19,48.19,0,0,1-10.65-15"/><path class="cls-3" d="M173.08,477.35A48.69,48.69,0,0,0,166,471.7a48.14,48.14,0,0,0-8.36-4.36"/><path class="cls-3" d="M132.84,478.55a48,48,0,0,1,6.81-6,46.73,46.73,0,0,1,8.13-4.76"/><path class="cls-3" d="M132.9,478.49a48.07,48.07,0,0,0,5.6-7.13,47.56,47.56,0,0,0,4.3-8.39"/><ellipse class="cls-3" cx="152.75" cy="458.09" rx="10.85" ry="11.03" transform="translate(-13.74 4.81) rotate(-1.73)"/><path class="cls-3" d="M152,429.49a48.37,48.37,0,0,1-2.92,18.18"/><path class="cls-3" d="M152,429.57a48.11,48.11,0,0,0,4,18"/><path class="cls-3" d="M180.88,457.07a47.46,47.46,0,0,1-9-.62,48.12,48.12,0,0,1-9.1-2.44"/><path class="cls-3" d="M180.79,457.07a48.45,48.45,0,0,0-18,3.86"/><path class="cls-3" d="M153.5,486.29a47.51,47.51,0,0,1,.62-9.05,48.18,48.18,0,0,1,2.43-9.1"/><path class="cls-3" d="M153.5,486.21a48.1,48.1,0,0,0-3.87-18"/><path class="cls-3" d="M124.16,458.65a48.37,48.37,0,0,1,18.17,2.92"/><path class="cls-3" d="M124.24,458.66a48.12,48.12,0,0,0,18-4"/><path class="cls-1" d="M150.12,84.41a370.59,370.59,0,0,1,97.93-61.28,249.86,249.86,0,0,1,31.65-11.2"/><path class="cls-2" d="M212.35,116.58c7.45-3.73,13.35-9.69,19.79-14.84a56.23,56.23,0,0,1,19.22-10.11,60.1,60.1,0,0,1,41.88,3c6.92,3.23,12.56,7.91,18,13.22,6,5.88,12,11.29,19.86,14.44,16.71,6.67,35,3.48,52.47,3.47A96.3,96.3,0,0,1,408.26,129a183,183,0,0,1,21.92,7.56c14.43,5.84,28.59,12.68,43.75,16.45a83.33,83.33,0,0,0,22.77,2.67c6.07-.19,13.34-1.44,17.26-6.62a9.67,9.67,0,0,0,1.58-8.57c-.95-3.19-3.4-5.64-6.08-7.49a44,44,0,0,0-11-5c-4.27-1.46-8.61-2.66-13-3.86A177.84,177.84,0,0,1,461,115.76a245.62,245.62,0,0,1-22.28-11.37C424.22,96.19,410.16,87.18,395.1,80q-5.53-2.64-11.25-4.89c-1.79-.71-2.57,2.19-.79,2.89,30.61,12.07,56.37,33.9,87.55,44.75,8.37,2.91,17,4.79,25.46,7.55a48.34,48.34,0,0,1,11.15,4.74c2.65,1.7,5.42,4.22,5.7,7.55.55,6.66-7.82,9.35-13.06,9.85a72.64,72.64,0,0,1-22.38-1.73c-30-6.6-56.18-26-87.42-27.75-17.6-1-35.62,3-52.92-1.78a43.94,43.94,0,0,1-10.79-4.48,53.31,53.31,0,0,1-9.69-7.71c-5.58-5.33-10.88-10.8-17.62-14.69A62.81,62.81,0,0,0,258.73,87a59,59,0,0,0-19.49,6.44c-6.91,3.74-12.55,9.18-18.61,14.09a54.1,54.1,0,0,1-9.79,6.51c-1.73.87-.21,3.46,1.51,2.59Z"/><path class="cls-2" d="M387,79.19c22.43-.47,41.6-12.91,61.63-21.4a160.52,160.52,0,0,1,34.47-9.85c12.08-2.15,24.59-2.8,36.74-.79C531.17,49,542,53.22,552.45,58c9.7,4.5,19.41,9.44,29.95,11.62a51.27,51.27,0,0,0,14.67,1c3.44-.3,7.39-1.18,9.91-3.74,3.06-3.1,2.14-7.59-.3-10.78a22.87,22.87,0,0,0-5.9-5c-2.57-1.67-5.14-3.34-7.73-5C573.46,33.73,552.91,22.09,530.33,16q-4.2-1.12-8.47-2c-1.88-.38-2.69,2.51-.79,2.9,22.37,4.53,42.85,14.87,62.19,26.69q7.59,4.65,15,9.53c2.13,1.39,4.43,2.73,6,4.78,1.07,1.41,2,3.32,1.57,5.13-.76,3.07-5,4.07-7.67,4.47a42.41,42.41,0,0,1-13.44-.47c-10.28-1.82-19.74-6.45-29.12-10.83-10-4.67-20.29-8.92-31.13-11.23a105.32,105.32,0,0,0-35.9-.94,161,161,0,0,0-17.69,3.41,163.51,163.51,0,0,0-16.85,5c-19.88,7.27-38,20-59.25,23.13a64.56,64.56,0,0,1-7.86.64c-1.93,0-1.93,3,0,3Z"/><path class="cls-2" d="M604.6,69.36a124.94,124.94,0,0,0,15.17,12.87c1.71,1.26,4.4,3.8,1.52,5.38-2.65,1.45-6.21,1.76-9.18,1.8-13.43.17-24.94-7.84-36.46-13.66-6.15-3.1-12.48-5.81-18.84-8.43s-12.49-5.4-19-7S524.25,58.74,517.43,59q-10.69.38-21.38.21a386.22,386.22,0,0,1-47.92-3.82,1.57,1.57,0,0,0-1.85,1,1.52,1.52,0,0,0,1.05,1.85,395.28,395.28,0,0,0,44.53,3.82q11.08.32,22.16,0c7.19-.21,14.49-.82,21.58.74s13.61,4.58,20.19,7.29,13.37,5.63,19.81,9c11.83,6.13,23.94,14,37.85,13.27,3.27-.18,7.36-.65,10.09-2.64s2.43-5.43.31-7.85a21.8,21.8,0,0,0-3.79-3.11q-2.35-1.68-4.59-3.51a103.67,103.67,0,0,1-8.75-8c-1.35-1.38-3.47.74-2.12,2.13Z"/><path class="cls-2" d="M510.76,13.62c-13.83.07-27.67.09-41.47-.91-14.13-1-28.38-2.92-41.87-7.36-3-1-5.94-2-9-2.67a80.61,80.61,0,0,0-10.15-1.49C401,.45,393.71.09,386.41,0a408.08,408.08,0,0,0-42.52,2.17c-15.84,1.49-31.64,3.43-47.49,4.73-1.91.15-1.93,3.16,0,3C324.79,7.58,353.06,3.2,381.59,3c7.11,0,14.23.16,21.31.7,3.61.28,7.23.59,10.8,1.11a59.83,59.83,0,0,1,9.69,2.37c3.05,1,6.06,2,9.14,2.9,3.44,1,7,1.66,10.46,2.31,7.07,1.31,14.2,2.25,21.35,2.9,15.43,1.4,30.94,1.4,46.42,1.32a1.5,1.5,0,0,0,0-3Z"/><path class="cls-2" d="M295.62,7c-2.82.49-5.63,1-8.47,1.37a58.73,58.73,0,0,0-8.53,2.21,1.5,1.5,0,0,0,.79,2.9l4.46-1.27a23.48,23.48,0,0,1,3.88-.9c2.91-.31,5.79-.91,8.67-1.42a1.5,1.5,0,0,0-.8-2.89Z"/><path class="cls-2" d="M521.36,14l-12.15-.44a1.5,1.5,0,0,0,0,3l12.15.44a1.5,1.5,0,0,0,0-3Z"/><path class="cls-1" d="M622.26,605.76A370.14,370.14,0,0,1,524.33,667a248.21,248.21,0,0,1-31.64,11.21"/><path class="cls-2" d="M560,573.58c-7.45,3.74-13.35,9.7-19.79,14.84A56.08,56.08,0,0,1,521,598.54a60.1,60.1,0,0,1-41.88-3c-6.91-3.24-12.56-7.91-18-13.22-6-5.88-12-11.29-19.85-14.44-16.72-6.67-35-3.48-52.47-3.47a96.25,96.25,0,0,1-24.71-3.16,180.08,180.08,0,0,1-21.92-7.56c-14.43-5.83-28.59-12.68-43.76-16.45a84.07,84.07,0,0,0-22.77-2.67c-6.07.2-13.34,1.45-17.25,6.62a9.69,9.69,0,0,0-1.59,8.58c1,3.19,3.41,5.64,6.08,7.49a44.09,44.09,0,0,0,11,5c4.26,1.46,8.61,2.66,12.95,3.86a179.27,179.27,0,0,1,24.53,8.32,249.38,249.38,0,0,1,22.27,11.37c14.49,8.2,28.55,17.22,43.61,24.38,3.7,1.76,7.44,3.4,11.25,4.9,1.79.7,2.57-2.2.8-2.9-30.62-12.06-56.38-33.89-87.56-44.74-8.36-2.91-17-4.8-25.46-7.55a48.37,48.37,0,0,1-11.15-4.75c-2.65-1.69-5.42-4.21-5.7-7.55-.55-6.66,7.83-9.34,13.07-9.85a72.6,72.6,0,0,1,22.37,1.74c30,6.6,56.18,26,87.42,27.75,17.6,1,35.62-3,52.92,1.77A43.81,43.81,0,0,1,446,573.46a53.69,53.69,0,0,1,9.69,7.7c5.58,5.34,10.88,10.81,17.62,14.69a62.81,62.81,0,0,0,40.31,7.37,59.25,59.25,0,0,0,19.5-6.44c6.91-3.74,12.55-9.19,18.61-14.1a54.73,54.73,0,0,1,9.78-6.51c1.73-.86.21-3.45-1.51-2.59Z"/><path class="cls-2" d="M385.42,611c-22.43.47-41.59,12.91-61.63,21.39a160.46,160.46,0,0,1-34.46,9.86c-12.09,2.15-24.59,2.8-36.75.78-11.36-1.88-22.24-6.06-32.65-10.89-9.7-4.49-19.4-9.44-30-11.61a51.57,51.57,0,0,0-14.66-1c-3.45.31-7.39,1.19-9.91,3.74-3.06,3.11-2.15,7.6.29,10.78a22.64,22.64,0,0,0,5.9,5q3.85,2.52,7.73,5c19.59,12.47,40.14,24.12,62.72,30.18,2.8.76,5.63,1.42,8.47,2,1.88.38,2.69-2.51.8-2.89-22.38-4.53-42.85-14.88-62.2-26.7-5.06-3.09-10.06-6.29-15-9.53-2.13-1.38-4.43-2.72-6-4.77-1.08-1.41-2-3.33-1.57-5.14.75-3.06,5-4.06,7.66-4.46a42.12,42.12,0,0,1,13.44.47c10.28,1.82,19.74,6.45,29.12,10.83,10,4.67,20.29,8.92,31.13,11.23a105.58,105.58,0,0,0,35.9.94,164,164,0,0,0,17.7-3.42,161.54,161.54,0,0,0,16.84-4.94c19.88-7.28,38-20,59.25-23.13a60.8,60.8,0,0,1,7.86-.64c1.93,0,1.94-3,0-3Z"/><path class="cls-2" d="M167.78,620.81a123.43,123.43,0,0,0-15.17-12.87c-1.7-1.27-4.4-3.8-1.52-5.38,2.65-1.45,6.22-1.76,9.18-1.8,13.44-.18,24.95,7.84,36.47,13.65,6.14,3.1,12.47,5.81,18.83,8.43s12.49,5.41,19,7.06,13.52,1.52,20.34,1.28c7.13-.25,14.26-.34,21.38-.21a388.14,388.14,0,0,1,47.92,3.81,1.56,1.56,0,0,0,1.85-1,1.51,1.51,0,0,0-1.05-1.85,397.64,397.64,0,0,0-44.53-3.83q-11.08-.3-22.16,0c-7.18.21-14.49.82-21.58-.74s-13.61-4.58-20.19-7.29-13.37-5.63-19.81-9C185,605,172.85,597,158.94,597.8c-3.28.19-7.37.65-10.1,2.64s-2.43,5.43-.31,7.86a21.81,21.81,0,0,0,3.8,3.1q2.34,1.7,4.58,3.52a103.69,103.69,0,0,1,8.75,8c1.35,1.39,3.47-.74,2.12-2.12Z"/><path class="cls-2" d="M261.63,676.54c13.82-.07,27.67-.08,41.47.92,14.12,1,28.37,2.91,41.86,7.35,3,1,5.94,2,9,2.68A79.06,79.06,0,0,0,364.1,689c7.27.74,14.57,1.11,21.87,1.18A408.4,408.4,0,0,0,428.5,688c15.83-1.5,31.63-3.43,47.49-4.73,1.91-.16,1.92-3.16,0-3-28.4,2.32-56.66,6.7-85.2,6.9-7.11.05-14.22-.16-21.31-.71-3.6-.27-7.22-.58-10.8-1.1A61.87,61.87,0,0,1,349,683c-3.05-1-6.07-2-9.15-2.91-3.44-1-7-1.65-10.46-2.3-7.06-1.32-14.2-2.26-21.35-2.91-15.43-1.39-30.93-1.39-46.41-1.32a1.5,1.5,0,0,0,0,3Z"/><path class="cls-2" d="M476.76,683.13c2.83-.5,5.64-1,8.48-1.38a57.79,57.79,0,0,0,8.53-2.21,1.5,1.5,0,0,0-.8-2.89l-4.46,1.26a22.43,22.43,0,0,1-3.87.91c-2.91.31-5.79.91-8.67,1.41a1.52,1.52,0,0,0-1.05,1.85,1.53,1.53,0,0,0,1.84,1Z"/><path class="cls-2" d="M251,676.15l12.14.45a1.5,1.5,0,0,0,0-3L251,673.15a1.5,1.5,0,1,0,0,3Z"/></g></g></svg>