<?xml version="1.0" encoding="UTF-8" standalone="no"?>
<!DOCTYPE svg PUBLIC "-//W3C//DTD SVG 1.1//EN" "http://www.w3.org/Graphics/SVG/1.1/DTD/svg11.dtd">
<svg width="100%" height="100%" viewBox="0 0 780 800" version="1.1" xmlns="http://www.w3.org/2000/svg" xmlns:xlink="http://www.w3.org/1999/xlink" xml:space="preserve" xmlns:serif="http://www.serif.com/" style="fill-rule:evenodd;clip-rule:evenodd;stroke-linejoin:round;stroke-miterlimit:2;">
    <g transform="matrix(1,0,0,1,-10.4641,0)">
        <g>
            <path d="M788.481,401.978C748.784,401.095 667.2,429.225 606.189,494.945C639.042,419.834 620.275,330.694 606.189,307.189C606.189,307.189 474.784,302.522 400,438.63C325.222,302.522 193.811,307.189 193.811,307.189C179.731,330.694 160.958,419.834 193.811,494.945C132.808,429.225 51.23,401.095 11.525,401.978C10.898,410.97 10.464,420.047 10.464,429.225C10.464,644.372 184.867,800 400,800C615.125,800 789.534,644.372 789.534,429.225C789.536,420.048 789.108,410.972 788.481,401.978Z" style="fill:white;fill-rule:nonzero;"/>
            <path d="M290.705,287.981C302.678,287.981 312.389,278.277 312.389,266.297C312.389,254.316 302.678,244.613 290.705,244.613C278.745,244.613 269.036,254.316 269.036,266.297C269.036,278.277 278.747,287.981 290.705,287.981Z" style="fill:white;fill-rule:nonzero;"/>
            <path d="M241.17,191.983C253.144,191.983 262.839,182.294 262.839,170.284C262.839,158.333 253.142,148.63 241.17,148.63C229.211,148.63 219.494,158.333 219.494,170.284C219.492,182.294 229.211,191.983 241.17,191.983Z" style="fill:white;fill-rule:nonzero;"/>
            <path d="M292.541,92.27C304.52,92.27 314.225,82.567 314.225,70.63C314.225,58.606 304.52,48.917 292.541,48.917C280.581,48.917 270.878,58.606 270.878,70.63C270.88,82.567 280.583,92.27 292.541,92.27Z" style="fill:white;fill-rule:nonzero;"/>
            <path d="M509.294,244.612C497.334,244.612 487.625,254.316 487.625,266.297C487.625,278.277 497.336,287.981 509.294,287.981C521.267,287.981 530.978,278.277 530.978,266.297C530.978,254.317 521.267,244.612 509.294,244.612Z" style="fill:white;fill-rule:nonzero;"/>
            <path d="M558.845,191.983C570.789,191.983 580.522,182.294 580.522,170.284C580.522,158.333 570.789,148.63 558.845,148.63C546.864,148.63 537.161,158.333 537.161,170.284C537.161,182.294 546.864,191.983 558.845,191.983Z" style="fill:white;fill-rule:nonzero;"/>
            <path d="M507.453,92.27C519.433,92.27 529.137,82.567 529.137,70.63C529.137,58.606 519.433,48.917 507.453,48.917C495.494,48.917 485.791,58.606 485.791,70.63C485.791,82.567 495.494,92.27 507.453,92.27Z" style="fill:white;fill-rule:nonzero;"/>
            <path d="M400.014,43.369C411.973,43.369 421.686,33.68 421.686,21.656C421.686,9.719 411.973,0 400.014,0C388.042,0 378.331,9.719 378.331,21.656C378.331,33.68 388.042,43.369 400.014,43.369Z" style="fill:white;fill-rule:nonzero;"/>
            <path d="M327.764,194.672C349.034,205.941 369.041,223.583 369.041,242.138L369.041,343.328C379.919,357.556 390.333,373.322 400.002,390.936C409.683,373.32 420.1,357.555 430.977,343.328L430.977,242.138C430.977,223.583 450.983,205.941 472.255,194.672C507.347,176.089 499.089,124.469 468.134,124.469L331.886,124.469C300.93,124.469 292.67,176.091 327.764,194.672Z" style="fill:white;fill-rule:nonzero;"/>
        </g>
    </g>
</svg>
