<?xml version="1.0" encoding="UTF-8" standalone="no"?>
<!DOCTYPE svg PUBLIC "-//W3C//DTD SVG 1.1//EN" "http://www.w3.org/Graphics/SVG/1.1/DTD/svg11.dtd">
<svg width="100%" height="100%" viewBox="0 0 24 26" version="1.1" xmlns="http://www.w3.org/2000/svg" xmlns:xlink="http://www.w3.org/1999/xlink" xml:space="preserve" xmlns:serif="http://www.serif.com/" style="fill-rule:evenodd;clip-rule:evenodd;stroke-linejoin:round;stroke-miterlimit:2;">
    <g id="Vrstva_2">
        <g id="Vrstva_1-2">
            <path d="M22.41,17.05L14.87,17.05C14.751,17.042 14.634,17.085 14.55,17.17L13.55,18.17C13.5,18.224 13.471,18.296 13.47,18.37L13.47,20.98C13.471,21.048 13.5,21.113 13.55,21.16L14.55,22.21C14.616,22.275 14.708,22.308 14.8,22.3L22.37,22.3C22.372,22.317 22.372,22.333 22.37,22.35L22.37,24.48C22.284,24.897 21.942,25.215 21.52,25.27L16,25.29L1.7,25.29C1.248,25.246 0.88,24.899 0.81,24.45L0.81,12.84C0.819,12.436 1.073,12.075 1.45,11.93C1.516,11.915 1.584,11.915 1.65,11.93L5.73,11.88L21.34,11.88C21.679,11.873 22,12.039 22.19,12.32C22.281,12.446 22.333,12.595 22.34,12.75L22.34,16.95L22.41,17.05ZM8.9,12.48L2.37,12.48C1.97,12.497 1.638,12.803 1.59,13.2L1.59,15.43C1.575,15.563 1.575,15.697 1.59,15.83C1.61,15.91 1.665,15.976 1.74,16.01C2,16.1 2.15,16.01 2.18,15.73L2.18,13.29C2.18,13.19 2.18,13.15 2.34,13.15L15.16,13.15C15.327,13.16 15.493,13.16 15.66,13.15C15.797,13.124 15.896,13.004 15.896,12.865C15.896,12.726 15.797,12.606 15.66,12.58L15.22,12.58L8.9,12.48Z" style="fill:rgb(112,86,66);fill-rule:nonzero;"/>
            <path d="M15.23,10.99C15.23,11.105 15.23,11.112 15.23,11.092C15.23,11.06 15.231,10.959 15.231,11.09L14.5,11.09C14.38,11.09 14.4,11.02 14.43,10.94C14.717,10.084 14.591,9.141 14.09,8.39C13.553,7.532 12.61,7.009 11.598,7.009C10.37,7.009 9.266,7.778 8.84,8.93C8.611,9.577 8.611,10.283 8.84,10.93C8.847,10.976 8.847,11.024 8.84,11.07L7.92,11.07L7.92,2.39C7.897,2.307 7.929,2.218 8,2.17C8.267,2.054 8.479,1.839 8.59,1.57C8.59,1.47 8.69,1.45 8.8,1.45L14.33,1.45C14.426,1.443 14.516,1.495 14.56,1.58C14.696,1.835 14.905,2.044 15.16,2.18C15.204,2.218 15.229,2.272 15.23,2.33L15.23,4.33C15.23,6.55 15.237,8.77 15.23,10.99ZM10.89,3.65C10.89,3.66 10.889,3.67 10.889,3.68C10.889,4.075 11.214,4.4 11.609,4.4L11.63,4.4C12.016,4.4 12.335,4.086 12.34,3.7C12.345,3.665 12.348,3.629 12.348,3.594C12.348,3.193 12.018,2.864 11.618,2.864C11.217,2.864 10.888,3.193 10.888,3.594C10.888,3.612 10.889,3.631 10.89,3.65Z" style="fill:rgb(112,86,66);fill-rule:nonzero;"/>
            <path d="M15.07,17.83L22.2,17.83C22.33,17.83 22.37,17.83 22.36,18L22.36,21.33C22.36,21.46 22.36,21.51 22.19,21.51L15.11,21.51C15.037,21.504 14.967,21.476 14.91,21.43C14.68,21.22 14.46,21 14.25,20.78C14.2,20.737 14.171,20.675 14.17,20.61L14.17,18.7C14.176,18.633 14.204,18.569 14.25,18.52C14.44,18.31 14.64,18.13 14.83,17.93C14.889,17.859 14.979,17.822 15.07,17.83ZM16.01,18.57L15.99,18.57C15.403,18.57 14.92,19.053 14.92,19.64C14.92,19.643 14.92,19.647 14.92,19.65C14.92,19.657 14.92,19.663 14.92,19.67C14.92,20.266 15.404,20.759 16,20.77C16.603,20.759 17.095,20.263 17.1,19.66C17.1,19.66 17.1,19.66 17.1,19.66C17.1,19.062 16.608,18.57 16.01,18.57Z" style="fill:rgb(112,86,66);fill-rule:nonzero;"/>
            <path d="M16.77,11.09L16.05,11.09L16.05,2.09C16.052,2.073 16.053,2.057 16.053,2.04C16.053,1.834 15.886,1.664 15.68,1.66C15.407,1.634 15.186,1.422 15.15,1.15C15.07,0.79 15,0.72 14.66,0.72L8.55,0.72C8.2,0.72 8.12,0.82 8.07,1.17C8.034,1.407 7.847,1.594 7.61,1.63C7.27,1.63 7.17,1.77 7.17,2.11L7.17,11.11L6.41,11.11L6.41,0.34C6.41,0.03 6.49,0.04 6.74,0.04L15.26,0.04C15.64,0.04 16.02,0.04 16.4,0.09C16.78,0.14 16.7,0.15 16.7,0.41L16.7,11.02C16.726,11.041 16.749,11.064 16.77,11.09Z" style="fill:rgb(112,86,66);fill-rule:nonzero;"/>
            <path d="M5.66,3.33L5.66,4.46C5.705,4.67 5.613,4.887 5.43,5C5.252,5.134 5.148,5.344 5.148,5.567C5.148,5.819 5.282,6.053 5.5,6.18C5.618,6.229 5.689,6.353 5.67,6.48L5.67,9.09C5.679,9.217 5.631,9.342 5.54,9.43C5.093,9.856 4.777,10.401 4.63,11C4.63,11.08 4.57,11.1 4.49,11.09L3.64,11.09C3.54,11.09 3.5,11.09 3.47,10.96C3,9.05 2.46,7.15 2,5.26C1.948,5.2 1.948,5.11 2,5.05C2.218,4.868 2.361,4.611 2.4,4.33C2.4,4.19 2.51,4.17 2.61,4.14L5.28,3.41L5.66,3.33Z" style="fill:rgb(112,86,66);fill-rule:nonzero;"/>
            <path d="M17.61,3.37L18.75,3.67L20.47,4.13C20.597,4.145 20.696,4.252 20.7,4.38C20.751,4.638 20.888,4.871 21.09,5.04C21.164,5.086 21.197,5.177 21.17,5.26C20.663,7.16 20.157,9.073 19.65,11C19.65,11.1 19.59,11.13 19.5,11.13L18.66,11.13C18.56,11.13 18.51,11.13 18.49,11C18.372,10.592 18.186,10.206 17.94,9.86C17.85,9.75 17.74,9.65 17.66,9.53C17.608,9.468 17.576,9.391 17.57,9.31L17.57,6.41C17.564,6.319 17.606,6.232 17.68,6.18C17.864,6.051 17.974,5.84 17.974,5.615C17.974,5.39 17.864,5.179 17.68,5.05C17.572,4.955 17.516,4.813 17.53,4.67L17.53,3.61C17.546,3.527 17.573,3.446 17.61,3.37Z" style="fill:rgb(112,86,66);fill-rule:nonzero;"/>
            <path d="M5.67,1.81L5.67,2.47C5.67,2.47 5.58,2.55 5.53,2.56L3.17,3.2L2,3.55C1.869,3.575 1.777,3.697 1.79,3.83C1.8,3.913 1.8,3.997 1.79,4.08C1.793,4.308 1.659,4.518 1.45,4.61C1.41,4.624 1.373,4.644 1.34,4.67C1.168,4.739 1.082,4.937 1.15,5.11C1.37,5.96 1.59,6.82 1.82,7.67L2.67,10.86L2.73,11.1L2.05,11.1C2,11.09 2,11 2,11L1.17,8.07C0.79,6.63 0.41,5.18 0,3.73C0,3.51 0,3.39 0.25,3.31C0.5,3.23 0.9,3.1 1.25,3.01L5.49,1.86L5.67,1.81Z" style="fill:rgb(112,86,66);fill-rule:nonzero;"/>
            <path d="M17.6,1.86L19.4,2.34L22.5,3.19C22.658,3.232 22.813,3.289 22.96,3.36C23.14,3.45 23.16,3.5 23.11,3.69C22.55,5.803 21.993,7.907 21.44,10C21.35,10.33 21.26,10.65 21.18,11C21.18,11.09 21.11,11.13 21.02,11.12L20.57,11.12C20.4,11.12 20.4,11.12 20.44,10.94L21.37,7.48L22,5.12C22.06,4.89 22,4.78 21.79,4.65C21.708,4.613 21.631,4.566 21.56,4.51C21.441,4.41 21.368,4.265 21.36,4.11C21.355,4.06 21.355,4.01 21.36,3.96C21.36,3.63 21.31,3.56 20.99,3.47L18.86,2.89L17.86,2.61C17.62,2.53 17.6,2.49 17.61,2.24C17.62,1.99 17.61,2.04 17.61,1.94C17.61,1.84 17.58,1.9 17.6,1.86Z" style="fill:rgb(112,86,66);fill-rule:nonzero;"/>
            <path d="M11.59,11.1L9.81,11.1C9.732,11.112 9.654,11.071 9.62,11C9.091,9.901 9.537,8.562 10.62,8C11.431,7.604 12.403,7.717 13.1,8.29C13.779,8.867 14.041,9.804 13.76,10.65C13.61,11.09 13.61,11.09 13.15,11.09L11.59,11.1ZM11,10.5C10.905,10.472 10.814,10.432 10.73,10.38C10.577,10.221 10.53,9.986 10.61,9.78C10.654,9.594 10.81,9.454 11,9.43C11,9.43 11.001,9.43 11.001,9.43C11.111,9.43 11.201,9.34 11.201,9.23C11.201,9.223 11.201,9.217 11.2,9.21C11.2,9.207 11.2,9.203 11.2,9.2C11.2,9.09 11.11,9 11,9C11,9 11,9 11,9C10.951,8.985 10.899,8.985 10.85,9C10.596,9.071 10.38,9.24 10.25,9.47C10.196,9.603 10.08,9.7 9.94,9.73C9.829,9.735 9.74,9.828 9.74,9.94C9.749,10.043 9.836,10.122 9.939,10.122C9.95,10.122 9.96,10.122 9.97,10.12C10.11,10.12 10.16,10.19 10.21,10.31C10.336,10.627 10.63,10.848 10.97,10.88C11.306,10.905 11.622,10.711 11.75,10.4C11.806,10.265 11.847,10.124 11.87,9.98C11.896,9.858 11.94,9.74 12,9.63C12.066,9.525 12.181,9.461 12.305,9.461C12.429,9.461 12.544,9.525 12.61,9.63C12.704,9.73 12.756,9.862 12.756,9.999C12.756,10.21 12.632,10.402 12.44,10.49L12.26,10.56C12.156,10.609 12.104,10.73 12.14,10.84C12.14,10.97 12.27,10.98 12.37,10.96C12.67,10.932 12.927,10.733 13.03,10.45C13.1,10.29 13.17,10.18 13.37,10.19C13.439,10.185 13.501,10.143 13.53,10.08C13.531,10.001 13.507,9.924 13.46,9.86C13.413,9.796 13.35,9.86 13.29,9.79C13.181,9.743 13.082,9.675 13,9.59C12.941,9.516 12.89,9.436 12.85,9.35C12.681,9.095 12.367,8.974 12.07,9.05C11.696,9.114 11.412,9.431 11.39,9.81C11.365,9.956 11.328,10.1 11.28,10.24C11.238,10.369 11.132,10.468 11,10.5Z" style="fill:rgb(112,86,66);fill-rule:nonzero;"/>
            <path d="M5.65,10.53L5.65,11.09L5.36,11.09L5.61,10.52L5.65,10.53Z" style="fill:rgb(112,86,66);fill-rule:nonzero;"/>
            <path d="M17.76,11.07C17.57,11.07 17.52,11.01 17.6,10.7L17.76,11.07Z" style="fill:rgb(112,86,66);fill-rule:nonzero;"/>
            <path d="M16,20.07C15.986,20.072 15.972,20.072 15.958,20.072C15.749,20.072 15.578,19.901 15.578,19.692C15.578,19.678 15.578,19.664 15.58,19.65C15.574,19.418 15.758,19.221 15.99,19.21C16.227,19.235 16.411,19.432 16.42,19.67C16.42,19.674 16.42,19.677 16.42,19.681C16.42,19.895 16.244,20.071 16.03,20.071C16.02,20.071 16.01,20.071 16,20.07Z" style="fill:rgb(112,86,66);fill-rule:nonzero;"/>
        </g>
    </g>
</svg>
