<?xml version="1.0" encoding="UTF-8" standalone="no"?>
<!DOCTYPE svg PUBLIC "-//W3C//DTD SVG 1.1//EN" "http://www.w3.org/Graphics/SVG/1.1/DTD/svg11.dtd">
<svg width="100%" height="100%" viewBox="0 0 12 9" version="1.1" xmlns="http://www.w3.org/2000/svg" xmlns:xlink="http://www.w3.org/1999/xlink" xml:space="preserve" xmlns:serif="http://www.serif.com/" style="fill-rule:evenodd;clip-rule:evenodd;stroke-linejoin:round;stroke-miterlimit:2;">
    <g transform="matrix(1,0,0,1,-26.7415,-553.081)">
        <g transform="matrix(1,0,0,1,32.671,558.785)">
            <path d="M0,-5.701C1.682,-5.701 3.365,-5.702 5.047,-5.7C5.514,-5.7 5.933,-5.281 5.906,-4.821C5.898,-4.701 5.812,-4.552 5.715,-4.475C4.394,-3.435 3.065,-2.405 1.739,-1.372C1.306,-1.034 0.882,-0.687 0.442,-0.359C-0.043,0.002 -0.255,0.005 -0.74,-0.365C-1.933,-1.277 -3.119,-2.199 -4.306,-3.118C-4.746,-3.459 -5.184,-3.805 -5.622,-4.15C-5.892,-4.362 -6.02,-4.813 -5.858,-5.124C-5.681,-5.464 -5.425,-5.706 -4.993,-5.704C-3.329,-5.696 -1.664,-5.701 0,-5.701" style="fill:rgb(219,200,123);fill-rule:nonzero;"/>
        </g>
        <g transform="matrix(1,0,0,1,34.0766,561.934)">
            <path d="M0,-3.33C1.233,-2.232 2.465,-1.134 3.737,0L-6.651,0C-5.411,-1.092 -4.202,-2.155 -2.985,-3.227C-2.508,-2.931 -2.1,-2.471 -1.484,-2.512C-0.885,-2.553 -0.479,-2.995 0,-3.33" style="fill:rgb(219,200,123);fill-rule:nonzero;"/>
        </g>
        <g transform="matrix(1,0,0,1,38.5676,561.607)">
            <path d="M0,-6.524L0,0C-1.32,-1.175 -2.599,-2.313 -3.906,-3.477C-2.612,-4.486 -1.329,-5.487 0,-6.524" style="fill:rgb(219,200,123);fill-rule:nonzero;"/>
        </g>
        <g transform="matrix(1,0,0,1,26.783,555.351)">
            <path d="M0,6.156L0,0C1.256,0.974 2.48,1.923 3.721,2.885C2.483,3.973 1.265,5.044 0,6.156" style="fill:rgb(219,200,123);fill-rule:nonzero;"/>
        </g>
    </g>
</svg>
