<?xml version="1.0" encoding="UTF-8" standalone="no"?>
<!DOCTYPE svg PUBLIC "-//W3C//DTD SVG 1.1//EN" "http://www.w3.org/Graphics/SVG/1.1/DTD/svg11.dtd">
<svg class="linktree-icon" width="100%" height="100%" viewBox="0 0 388 776" version="1.1" xmlns="http://www.w3.org/2000/svg" xmlns:xlink="http://www.w3.org/1999/xlink" xml:space="preserve" xmlns:serif="http://www.serif.com/" style="fill-rule:evenodd;clip-rule:evenodd;stroke-linejoin:round;stroke-miterlimit:2;">
    <g transform="matrix(1,0,0,1,-206,-12)">
        <g transform="matrix(5.62319,0,0,5.62319,206,12)">
            <path d="M17.25,0C13.665,0 10.781,2.884 10.781,6.469C10.781,10.054 13.665,12.938 17.25,12.938C18.436,12.938 19.406,13.908 19.406,15.094L19.406,32.586C19.406,35.875 17.466,38.813 14.77,40.699C5.849,46.925 0,57.275 0,69L0,120.75C0,130.264 7.736,138 17.25,138L51.75,138C61.265,138 69,130.264 69,120.75L69,69C69,57.275 63.151,46.925 54.23,40.699C51.534,38.813 49.594,35.875 49.594,32.586L49.594,15.094C49.594,13.908 50.564,12.938 51.75,12.938C55.335,12.938 58.219,10.054 58.219,6.469C58.219,2.884 55.335,0 51.75,0L17.25,0ZM34.5,102.961C27.357,102.961 21.563,97.543 21.563,90.832C21.563,86.304 27.519,77.868 31.347,72.935C32.964,70.833 36.063,70.833 37.681,72.935C41.481,77.868 47.438,86.304 47.438,90.832C47.438,97.543 41.643,102.961 34.5,102.961Z" style="fill:white;fill-rule:nonzero;"/>
        </g>
    </g>
</svg>
