<?xml version="1.0" encoding="UTF-8" standalone="no"?>
<!DOCTYPE svg PUBLIC "-//W3C//DTD SVG 1.1//EN" "http://www.w3.org/Graphics/SVG/1.1/DTD/svg11.dtd">
<svg width="100%" height="100%" viewBox="0 0 11 12" version="1.1" xmlns="http://www.w3.org/2000/svg" xmlns:xlink="http://www.w3.org/1999/xlink" xml:space="preserve" xmlns:serif="http://www.serif.com/" style="fill-rule:evenodd;clip-rule:evenodd;stroke-linejoin:round;stroke-miterlimit:2;">
    <g transform="matrix(1,0,0,1,-26.1285,-535.566)">
        <g transform="matrix(1,0,0,1,26.1285,543.671)">
            <path d="M0,-4.466C0.006,-5.472 0.276,-6.304 0.892,-7C1.114,-7.252 1.385,-7.461 1.635,-7.688C1.721,-7.766 1.81,-7.842 1.903,-7.912C2.261,-8.184 2.655,-8.169 2.979,-7.857C3.141,-7.701 3.298,-7.534 3.421,-7.348C3.681,-6.953 3.926,-6.547 4.159,-6.135C4.28,-5.923 4.348,-5.686 4.36,-5.436C4.377,-5.101 4.267,-4.813 4.024,-4.588C3.796,-4.377 3.563,-4.168 3.31,-3.991C2.825,-3.653 2.766,-3.223 2.95,-2.699C3.121,-2.216 3.41,-1.801 3.724,-1.405C4.141,-0.877 4.584,-0.371 5.109,0.056C5.399,0.293 5.704,0.506 6.077,0.595C6.402,0.673 6.681,0.588 6.922,0.358C7.144,0.147 7.365,-0.067 7.596,-0.268C8.03,-0.646 8.498,-0.688 9.009,-0.42C9.472,-0.177 9.852,0.174 10.235,0.521C10.427,0.694 10.605,0.887 10.764,1.091C11.072,1.486 11.039,1.896 10.669,2.233C10.291,2.578 9.933,2.947 9.478,3.199C8.793,3.578 8.063,3.718 7.288,3.644C6.334,3.553 5.495,3.164 4.714,2.634C3.735,1.969 2.915,1.133 2.162,0.227C1.486,-0.586 0.89,-1.451 0.472,-2.428C0.182,-3.105 0.003,-3.808 0,-4.466" style="fill:rgb(219,200,123);fill-rule:nonzero;"/>
        </g>
    </g>
</svg>
