<?xml version="1.0" encoding="UTF-8" standalone="no"?>
<!DOCTYPE svg PUBLIC "-//W3C//DTD SVG 1.1//EN" "http://www.w3.org/Graphics/SVG/1.1/DTD/svg11.dtd">
<svg width="100%" height="100%" viewBox="0 0 10 13" version="1.1" xmlns="http://www.w3.org/2000/svg" xmlns:xlink="http://www.w3.org/1999/xlink" xml:space="preserve" xmlns:serif="http://www.serif.com/" style="fill-rule:evenodd;clip-rule:evenodd;stroke-linejoin:round;stroke-miterlimit:2;">
    <g transform="matrix(1,0,0,1,-25.7515,-518.799)">
        <g transform="matrix(1,0,0,1,32.3206,527.053)">
            <path d="M0,-3.715C0.003,-4.85 -0.901,-5.766 -2.028,-5.77C-3.161,-5.773 -4.082,-4.857 -4.087,-3.722C-4.092,-2.589 -3.174,-1.661 -2.044,-1.655C-0.916,-1.648 -0.003,-2.569 0,-3.715M-2.42,-8.254L-1.673,-8.254C-1.64,-8.244 -1.607,-8.233 -1.574,-8.225C-1.173,-8.127 -0.75,-8.083 -0.376,-7.924C1.277,-7.225 2.223,-5.968 2.454,-4.186C2.559,-3.373 2.42,-2.581 2.181,-1.806C1.677,-0.169 0.805,1.267 -0.285,2.572C-0.847,3.245 -1.446,3.885 -2.029,4.539L-2.064,4.539C-2.09,4.501 -2.112,4.459 -2.142,4.424C-2.625,3.856 -3.121,3.299 -3.592,2.722C-4.697,1.366 -5.623,-0.098 -6.201,-1.762C-6.52,-2.679 -6.688,-3.617 -6.472,-4.582C-6.06,-6.429 -4.936,-7.612 -3.111,-8.12C-2.886,-8.183 -2.65,-8.21 -2.42,-8.254" style="fill:rgb(219,200,123);fill-rule:nonzero;"/>
        </g>
    </g>
</svg>
