<?xml version="1.0" encoding="UTF-8" standalone="no"?>
<!DOCTYPE svg PUBLIC "-//W3C//DTD SVG 1.1//EN" "http://www.w3.org/Graphics/SVG/1.1/DTD/svg11.dtd">
<svg width="100%" height="100%" viewBox="0 0 23 27" version="1.1" xmlns="http://www.w3.org/2000/svg" xmlns:xlink="http://www.w3.org/1999/xlink" xml:space="preserve" xmlns:serif="http://www.serif.com/" style="fill-rule:evenodd;clip-rule:evenodd;stroke-linejoin:round;stroke-miterlimit:2;">
    <g id="Vrstva_2">
        <g id="Vrstva_1-2">
            <path d="M18.34,5.31L5.07,5.31L5.07,16.37L4.18,16.37L4.18,1.5C4.121,0.941 4.417,0.401 4.92,0.15C5.106,0.056 5.311,0.004 5.52,-0L17,0C17.01,-0 17.02,-0 17.03,-0C17.749,-0 18.34,0.591 18.34,1.31L18.34,5.19C18.344,5.23 18.344,5.27 18.34,5.31ZM9.11,3.1L13.46,3.1C13.482,3.103 13.505,3.105 13.527,3.105C13.774,3.105 13.977,2.902 13.977,2.655C13.977,2.408 13.774,2.205 13.527,2.205C13.505,2.205 13.482,2.207 13.46,2.21L9.12,2.21C8.81,2.21 8.63,2.37 8.63,2.65C8.63,2.93 8.8,3.1 9.11,3.1Z" style="fill:rgb(112,86,66);fill-rule:nonzero;"/>
            <path d="M17.46,10.2L18.35,10.2L18.35,25.11C18.377,25.551 18.191,25.979 17.85,26.26C17.637,26.442 17.37,26.548 17.09,26.56L5.63,26.56C5.592,26.563 5.554,26.565 5.516,26.565C4.781,26.565 4.176,25.96 4.176,25.225C4.176,25.19 4.177,25.155 4.18,25.12L4.18,21.25L17.46,21.25L17.46,10.2ZM11.25,25.2C11.288,25.203 11.327,25.205 11.365,25.205C12.095,25.205 12.695,24.605 12.695,23.875C12.695,23.145 12.095,22.545 11.365,22.545C11.327,22.545 11.288,22.547 11.25,22.55C10.566,22.609 10.035,23.189 10.035,23.875C10.035,24.561 10.566,25.141 11.25,25.2Z" style="fill:rgb(112,86,66);fill-rule:nonzero;"/>
            <path d="M11.27,18.15C10.258,18.189 9.258,17.913 8.41,17.36C7.416,16.669 6.735,15.611 6.52,14.42C6.231,13.192 6.402,11.9 7,10.79C7.677,9.467 8.99,8.582 10.47,8.45C11.35,8.329 12.246,8.411 13.09,8.69C14.444,9.15 15.487,10.252 15.87,11.63C16.446,13.283 16.132,15.122 15.04,16.49C14.21,17.537 12.946,18.149 11.61,18.15L11.27,18.15ZM11.73,16.82C12.92,16.773 13.979,16.038 14.44,14.94C14.918,13.962 14.951,12.824 14.53,11.82C14.196,10.908 13.456,10.201 12.53,9.91C11.881,9.717 11.195,9.683 10.53,9.81C10.058,9.89 9.611,10.074 9.22,10.35C7.614,11.621 7.327,13.981 8.58,15.6C9.366,16.498 10.545,16.955 11.73,16.82Z" style="fill:rgb(112,86,66);fill-rule:nonzero;"/>
            <path d="M19.23,6.19L19.23,5.32C19.205,5.116 19.32,4.919 19.51,4.84C19.69,4.779 19.891,4.844 20,5L22.25,7.1C22.429,7.266 22.531,7.5 22.531,7.745C22.531,7.99 22.429,8.224 22.25,8.39L20,10.55C19.913,10.639 19.794,10.69 19.67,10.69C19.418,10.69 19.21,10.482 19.21,10.23C19.21,10.226 19.21,10.223 19.21,10.22L19.21,9.3L15.35,9.3C15.311,9.305 15.272,9.308 15.232,9.308C14.744,9.308 14.342,8.906 14.342,8.418C14.342,8.378 14.345,8.339 14.35,8.3L14.35,7.14C14.346,7.105 14.344,7.069 14.344,7.034C14.344,6.54 14.75,6.134 15.244,6.134C15.279,6.134 15.315,6.136 15.35,6.14L19.26,6.14L19.23,6.19Z" style="fill:rgb(112,86,66);fill-rule:nonzero;"/>
            <path d="M3.3,17.26L7.19,17.26C7.225,17.256 7.261,17.254 7.296,17.254C7.79,17.254 8.196,17.66 8.196,18.154C8.196,18.189 8.194,18.225 8.19,18.26L8.19,19.45C8.191,19.471 8.192,19.491 8.192,19.512C8.192,19.995 7.795,20.392 7.312,20.392C7.291,20.392 7.271,20.391 7.25,20.39L3.3,20.39L3.3,21.27C3.296,21.386 3.265,21.499 3.21,21.6C3.13,21.717 2.997,21.787 2.855,21.787C2.745,21.787 2.64,21.745 2.56,21.67C1.78,20.91 1,20.16 0.24,19.4C0.082,19.242 -0.007,19.028 -0.007,18.805C-0.007,18.582 0.082,18.368 0.24,18.21C1,17.46 1.78,16.73 2.55,16C2.665,15.878 2.844,15.838 3,15.9C3.168,15.964 3.278,16.13 3.27,16.31L3.3,17.26Z" style="fill:rgb(112,86,66);fill-rule:nonzero;"/>
            <path d="M11.71,23.91C11.71,23.917 11.711,23.924 11.711,23.931C11.711,24.162 11.521,24.351 11.291,24.351C11.28,24.351 11.27,24.351 11.26,24.35C11.238,24.353 11.215,24.355 11.193,24.355C10.946,24.355 10.743,24.152 10.743,23.905C10.743,23.658 10.946,23.455 11.193,23.455C11.215,23.455 11.238,23.457 11.26,23.46C11.267,23.46 11.274,23.46 11.28,23.46C11.516,23.46 11.71,23.654 11.71,23.89C11.71,23.896 11.71,23.903 11.71,23.91Z" style="fill:rgb(112,86,66);fill-rule:nonzero;"/>
            <path d="M11.27,15.94C11.225,15.942 11.181,15.944 11.136,15.944C9.748,15.944 8.606,14.801 8.606,13.414C8.606,13.366 8.607,13.318 8.61,13.27C8.608,13.232 8.607,13.195 8.607,13.157C8.607,11.764 9.754,10.617 11.147,10.617C11.188,10.617 11.229,10.618 11.27,10.62C11.315,10.618 11.36,10.616 11.405,10.616C12.787,10.616 13.925,11.754 13.925,13.136C13.925,13.188 13.923,13.239 13.92,13.29C13.923,13.338 13.924,13.386 13.924,13.434C13.924,14.811 12.791,15.944 11.414,15.944C11.366,15.944 11.318,15.943 11.27,15.94ZM11.05,11.27C11.15,11.58 10.99,11.68 10.76,11.77C10.36,11.955 10.127,12.384 10.19,12.82C10.246,13.245 10.57,13.588 10.99,13.67C11.064,13.673 11.136,13.694 11.2,13.73C11.255,13.789 11.306,13.852 11.35,13.92C11.287,13.967 11.216,14.001 11.14,14.02C10.858,14.06 10.57,14.007 10.32,13.87C10.24,14.08 10.18,14.29 10.1,14.48C10.02,14.67 10.1,14.74 10.23,14.78L10.88,14.97L10.8,15.32L11.54,15.32C11.545,15.257 11.545,15.193 11.54,15.13C11.54,14.98 11.54,14.92 11.73,14.88C11.863,14.833 11.988,14.766 12.1,14.68C12.358,14.492 12.511,14.191 12.511,13.872C12.511,13.511 12.315,13.177 12,13L11.48,12.81L11.11,12.72C11.11,12.64 11.19,12.56 11.23,12.54C11.57,12.39 11.88,12.6 12.23,12.67L12.46,11.76L11.8,11.61L11.87,11.29L11.05,11.27Z" style="fill:rgb(112,86,66);fill-rule:nonzero;"/>
        </g>
    </g>
</svg>
