<?xml version="1.0" encoding="UTF-8" standalone="no"?>
<!DOCTYPE svg PUBLIC "-//W3C//DTD SVG 1.1//EN" "http://www.w3.org/Graphics/SVG/1.1/DTD/svg11.dtd">
<svg width="100%" height="100%" viewBox="0 0 471 800" version="1.1" xmlns="http://www.w3.org/2000/svg" xmlns:xlink="http://www.w3.org/1999/xlink" xml:space="preserve" xmlns:serif="http://www.serif.com/" style="fill-rule:evenodd;clip-rule:evenodd;stroke-linejoin:round;stroke-miterlimit:2;">
    <g transform="matrix(1,0,0,1,-164.944,-0.00738624)">
        <g>
            <path d="M634.184,557.967C628.495,493.441 587.773,401.791 489.288,397.372C344.097,397.763 323.052,510.092 336.7,559.847C348.15,601.644 378.545,634.969 421.734,631.184C464.923,627.4 497.467,589.241 493.072,546.125C492.316,500.397 531.109,501.594 532.281,552.18C533.869,619.514 488.384,678.62 421.295,684.528C354.205,690.387 300.153,639.923 288.922,573.542C282.134,533.259 289.85,456.086 358.356,395.783C446.394,318.292 542.292,411.212 534.503,285.505C526.642,158.648 494.756,155.964 412.53,106.55C358.159,73.859 348.858,22.005 351.909,1.692C352.031,0.716 352.031,-0.75 350.103,0.472C299.175,32.455 298.761,91.097 328.52,136.8C342.803,158.7 372.319,169.978 375.347,204.647C379.473,251.669 352.422,266.023 330.131,285.433C307.866,304.842 281.352,325.667 241.361,366.805C177.494,432.528 160.697,515.584 165.8,585.97C171.439,650.472 202.714,706.6 248.661,745.15C294.681,783.725 355.4,804.745 419.902,799.081C484.428,793.417 540.531,762.142 579.13,716.17C617.68,670.173 639.823,622.469 634.184,557.967Z" style="fill:white;fill-rule:nonzero;"/>
        </g>
    </g>
</svg>
