<?xml version="1.0" encoding="UTF-8" standalone="no"?>
<!DOCTYPE svg PUBLIC "-//W3C//DTD SVG 1.1//EN" "http://www.w3.org/Graphics/SVG/1.1/DTD/svg11.dtd">
<svg width="100%" height="100%" viewBox="0 0 48 33" version="1.1" xmlns="http://www.w3.org/2000/svg" xmlns:xlink="http://www.w3.org/1999/xlink" xml:space="preserve" xmlns:serif="http://www.serif.com/" style="fill-rule:evenodd;clip-rule:evenodd;stroke-linejoin:round;stroke-miterlimit:2;">
    <g transform="matrix(1,0,0,1,-376.121,-27)">
        <g>
            <g transform="matrix(1,0,0,1,376.121,27)">
                <g id="Vrstva_2">
                    <g id="Vrstva_1-2">
                        <path d="M25,5.71C24.9,6.23 24.81,6.71 24.72,7.2C24.42,8.76 24.16,10.34 23.83,11.9C23.608,13.773 21.954,15.172 20.07,15.08C19.363,15.14 18.651,15.023 18,14.74C17.017,14.295 16.427,13.263 16.54,12.19C16.635,10.257 18.153,8.671 20.08,8.49C20.94,8.395 21.806,8.365 22.67,8.4C22.87,8.4 22.95,8.4 22.99,8.16C23.11,7.46 23.27,6.76 23.39,6.06C23.393,5.903 23.523,5.776 23.68,5.776C23.697,5.776 23.713,5.777 23.73,5.78C24.15,5.77 24.56,5.73 25,5.71ZM22.71,9.42L21.09,9.42C19.515,9.42 18.22,10.716 18.22,12.29L18.22,12.32C18.101,13.007 18.542,13.677 19.22,13.84C19.526,13.9 19.839,13.92 20.15,13.9C20.989,13.941 21.755,13.403 22,12.6C22.27,11.58 22.46,10.55 22.71,9.42Z" style="fill:rgb(112,86,66);fill-rule:nonzero;"/>
                        <path d="M44.44,8.37C45.081,8.363 45.716,8.496 46.3,8.76C47.345,9.213 47.936,10.344 47.71,11.46C47.418,13.282 46.011,14.737 44.2,15.09C43.302,15.325 42.358,15.325 41.46,15.09C40.352,14.808 39.57,13.802 39.57,12.658C39.57,12.376 39.617,12.096 39.71,11.83C40.132,10.145 41.517,8.862 43.23,8.57C43.63,8.483 44.034,8.416 44.44,8.37ZM43.09,14.1C44.522,14.086 45.735,13.002 45.91,11.58C46.21,9.84 44.91,9.33 43.78,9.58C42.256,9.925 41.224,11.378 41.4,12.93C41.465,13.475 41.866,13.924 42.4,14.05L43.09,14.1Z" style="fill:rgb(112,86,66);fill-rule:nonzero;"/>
                        <path d="M11.21,15.18C10.445,15.214 9.685,15.052 9,14.71C8.069,14.203 7.578,13.137 7.8,12.1C8.126,10.234 9.633,8.784 11.51,8.53C12.428,8.327 13.386,8.403 14.26,8.75C15.347,9.154 15.98,10.306 15.74,11.44C15.518,13.18 14.229,14.605 12.52,15C12.088,15.091 11.65,15.151 11.21,15.18ZM11.16,14.05C11.396,14.036 11.63,14.002 11.86,13.95C13.08,13.616 13.949,12.524 14,11.26C14.011,11.186 14.016,11.112 14.016,11.037C14.016,10.203 13.33,9.517 12.496,9.517C12.464,9.517 12.432,9.518 12.4,9.52C12.127,9.513 11.854,9.547 11.59,9.62C10.26,10.056 9.394,11.355 9.5,12.75C9.523,13.3 9.906,13.774 10.44,13.91C10.677,13.969 10.918,14.016 11.16,14.05Z" style="fill:rgb(112,86,66);fill-rule:nonzero;"/>
                        <path d="M26.36,12.2C26.181,13.216 26.843,14.206 27.85,14.43C28.698,14.651 29.578,14.719 30.45,14.63L30.69,14.63C29.912,15.118 29.008,15.368 28.09,15.35C27.293,15.377 26.506,15.164 25.83,14.74C25.093,14.286 24.648,13.476 24.66,12.61C24.642,10.796 25.86,9.186 27.61,8.71C28.632,8.349 29.742,8.321 30.78,8.63C31.392,8.763 31.858,9.269 31.94,9.89C32.047,10.549 31.756,11.212 31.2,11.58C30.521,12.067 29.706,12.33 28.87,12.33C28.1,12.33 27.32,12.26 26.54,12.22L26.36,12.2ZM26.57,11.2C26.615,11.231 26.666,11.252 26.72,11.26C27.481,11.395 28.259,11.395 29.02,11.26C29.429,11.221 29.817,11.057 30.13,10.79C30.366,10.581 30.463,10.254 30.38,9.95C30.318,9.663 30.073,9.45 29.78,9.43C29.366,9.37 28.944,9.37 28.53,9.43C27.613,9.636 26.868,10.309 26.57,11.2Z" style="fill:rgb(112,86,66);fill-rule:nonzero;"/>
                        <path d="M32.39,8.5L33.73,8.5C33.8,8.5 33.88,8.59 33.94,8.66L35.82,11C37.413,9.602 38.904,8.092 40.28,6.48C39.614,8.591 38.412,10.493 36.79,12L39.67,15.09L38.61,15.09C37.61,15.09 37.61,15.09 36.94,14.35C36.72,14.11 36.49,13.87 36.28,13.63L35.69,13C34.9,13.37 34.16,13.77 33.38,14.09C32.593,14.394 31.754,14.54 30.91,14.52L31.39,14.22L34.55,12C34.72,11.89 34.73,11.8 34.6,11.62C33.88,10.62 33.18,9.62 32.48,8.62C32.447,8.582 32.417,8.542 32.39,8.5Z" style="fill:rgb(112,86,66);fill-rule:nonzero;"/>
                        <path d="M0,14.88C0.074,14.647 0.134,14.41 0.18,14.17C0.18,13.9 0.36,13.89 0.58,13.93C1.639,14.128 2.723,14.152 3.79,14C4.113,13.936 4.423,13.821 4.71,13.66C4.863,13.566 4.982,13.426 5.05,13.26C5.109,13.167 5.14,13.059 5.14,12.949C5.14,12.673 4.942,12.432 4.67,12.38C4.2,12.24 3.72,12.19 3.24,12.09C2.94,12.049 2.642,11.989 2.35,11.91C1.734,11.769 1.293,11.216 1.293,10.584C1.293,10.187 1.468,9.808 1.77,9.55C2.233,9.106 2.818,8.81 3.45,8.7C4.866,8.428 6.318,8.411 7.74,8.65C9.162,8.889 7.74,8.65 7.85,8.7C7.76,8.96 7.68,9.22 7.57,9.46C7.57,9.46 7.41,9.54 7.33,9.53C6.372,9.422 5.404,9.438 4.45,9.58C4.107,9.636 3.772,9.73 3.45,9.86C3.216,9.932 3.059,10.155 3.07,10.4C3.087,10.651 3.28,10.857 3.53,10.89C4.05,11.01 4.59,11.08 5.12,11.21C5.524,11.296 5.917,11.431 6.29,11.61C6.818,11.913 7.052,12.559 6.84,13.13C6.66,13.959 6.029,14.62 5.21,14.84C4.243,15.155 3.221,15.264 2.21,15.16C1.49,15.11 0.77,15 0,14.88Z" style="fill:rgb(112,86,66);fill-rule:nonzero;"/>
                        <path d="M41,2.9L40.27,1.17L41.91,1.91L42.79,0L43.06,1.94L44.93,1.3L43.63,3L45.05,4.11C44.5,4.11 44.05,4.2 43.55,4.22C43.27,4.22 43.11,4.3 43.12,4.62C43.13,4.94 43.12,5.56 43.05,6.02C43.056,6.103 43.056,6.187 43.05,6.27L42,4.77L40.43,6.19L41.01,4.19L39.18,3.93L41,2.9Z" style="fill:rgb(112,86,66);fill-rule:nonzero;"/>
                    </g>
                </g>
            </g>
            <g transform="matrix(1,0,0,1,377.77,46)">
                <g id="Vrstva_21" serif:id="Vrstva_2">
                    <g id="Vrstva_1-21" serif:id="Vrstva_1-2">
                        <path d="M38.43,11.75C38.988,11.612 39.495,11.317 39.89,10.9C40.175,10.629 40.249,10.2 40.07,9.85C39.33,8.07 38.62,6.27 37.91,4.48C37.91,4.4 37.85,4.32 37.81,4.22L40,4.22L41.28,8.5L41.54,7.41C41.8,6.41 42.05,5.41 42.3,4.41C42.3,4.27 42.39,4.22 42.54,4.22L44.46,4.22C44.25,4.82 44.06,5.39 43.85,5.96C43.31,7.41 42.79,8.86 42.22,10.29C41.904,11.196 41.364,12.008 40.65,12.65C40.206,13.008 39.686,13.261 39.13,13.39C38.94,13.39 38.83,13.39 38.78,13.16C38.69,12.68 38.55,12.22 38.43,11.75Z" style="fill:rgb(112,86,66);fill-rule:nonzero;"/>
                        <path d="M15.31,10.5L13.31,10.5L13.31,4.23L15,4.23L15.11,5.08C15.153,5.051 15.194,5.017 15.23,4.98C15.842,4.196 16.881,3.872 17.83,4.17C18.707,4.466 19.301,5.294 19.3,6.22C19.36,7.62 19.3,9.03 19.3,10.43L19.3,10.5L17.4,10.5L17.4,7C17.399,6.822 17.382,6.645 17.35,6.47C17.313,5.988 16.906,5.61 16.423,5.61C16.378,5.61 16.334,5.614 16.29,5.62C15.757,5.658 15.328,6.087 15.29,6.62L15.29,8.95L15.31,10.5Z" style="fill:rgb(112,86,66);fill-rule:nonzero;"/>
                        <path d="M21.71,8C21.74,8.511 22.096,8.948 22.59,9.08C23.276,9.275 24.004,9.275 24.69,9.08C24.87,9.08 25.04,9 25.24,8.95C25.32,9.34 25.4,9.73 25.47,10.11C25.464,10.192 25.414,10.265 25.34,10.3C24.115,10.76 22.765,10.76 21.54,10.3C20.891,10.05 20.381,9.532 20.14,8.88C19.588,7.631 19.781,6.172 20.64,5.11C21.698,3.878 23.556,3.68 24.85,4.66C25.394,5.143 25.734,5.816 25.8,6.54C25.82,6.933 25.82,7.327 25.8,7.72C25.8,7.92 25.71,7.96 25.54,7.95L21.71,7.95L21.71,8ZM24,6.65C24.044,6.227 23.866,5.81 23.53,5.55C23.167,5.31 22.693,5.31 22.33,5.55C21.93,5.792 21.681,6.223 21.67,6.69L24,6.65Z" style="fill:rgb(112,86,66);fill-rule:nonzero;"/>
                        <path d="M12.77,8L8.68,8C8.692,8.373 8.897,8.714 9.22,8.9C9.707,9.189 10.281,9.299 10.84,9.21C11.29,9.21 11.74,9.08 12.22,9C12.29,9.37 12.37,9.75 12.44,10.14C12.437,10.212 12.395,10.277 12.33,10.31C11.021,10.838 9.551,10.801 8.27,10.21C7.479,9.792 6.952,9.001 6.87,8.11C6.645,6.944 7.022,5.74 7.87,4.91C8.997,3.846 10.762,3.794 11.95,4.79C12.443,5.267 12.745,5.907 12.8,6.59C12.81,7 12.77,7.49 12.77,8ZM8.69,6.65L11,6.65C11.011,6.587 11.017,6.522 11.017,6.458C11.017,5.916 10.616,5.45 10.08,5.37C10.03,5.364 9.979,5.361 9.929,5.361C9.249,5.361 8.689,5.921 8.689,6.601C8.689,6.617 8.689,6.634 8.69,6.65Z" style="fill:rgb(112,86,66);fill-rule:nonzero;"/>
                        <path d="M5.09,10.11C5.05,9.73 5,9.36 5,9C4.838,8.394 4.528,7.838 4.1,7.38C3.621,6.85 3.293,6.2 3.15,5.5C3.11,5.218 3.11,4.932 3.15,4.65C3.157,4.284 3.421,3.97 3.78,3.9C3.923,3.846 4.058,3.772 4.18,3.68C4.098,3.487 3.882,3.383 3.68,3.44C3.285,3.508 2.878,3.459 2.51,3.3C1.936,3.137 1.324,3.442 1.11,4C1,4.25 1,4.5 0.87,4.75C0.697,5.286 0.399,5.773 0,6.17L0,1.94C0.21,1.94 0.42,1.87 0.64,1.85C1.791,1.685 2.959,1.685 4.11,1.85C4.506,1.931 4.885,2.08 5.23,2.29C5.798,2.621 6.148,3.231 6.148,3.888C6.148,4.521 5.824,5.111 5.29,5.45C5.12,5.57 4.94,5.66 4.72,5.79C5.722,5.999 6.447,6.89 6.447,7.914C6.447,8.081 6.428,8.248 6.39,8.41C6.261,9.155 5.775,9.791 5.09,10.11Z" style="fill:rgb(112,86,66);fill-rule:nonzero;"/>
                        <path d="M30,5.64L28.77,5.64L28.77,10.52L27,10.52C26.81,10.52 26.86,10.36 26.86,10.26L26.86,5.69L26,5.69L26,4.21L26.81,4.21C26.719,3.337 27.015,2.466 27.62,1.83C28.001,1.484 28.487,1.276 29,1.24L29.3,2.8C28.75,3.07 28.74,3.61 28.76,4.21L30,4.21L30,5.64Z" style="fill:rgb(112,86,66);fill-rule:nonzero;"/>
                        <path d="M34,5.65L33.19,5.65L33.19,4.22L34,4.22L34,3.29C34,2.99 34.07,3.01 34.26,2.96L35.92,2.51L35.92,4.2L37.3,4.2L37.3,5.64L35.93,5.64L35.93,8.19C35.93,8.84 36.21,9.08 36.86,9.07L37.29,9.07L37.29,10.4C37.273,10.471 37.22,10.528 37.15,10.55C36.493,10.737 35.794,10.716 35.15,10.49C34.513,10.206 34.114,9.556 34.15,8.86L34.15,6L34,5.65Z" style="fill:rgb(112,86,66);fill-rule:nonzero;"/>
                        <rect x="30.65" y="4.25" width="1.9" height="6.25" style="fill:rgb(112,86,66);"/>
                        <path d="M33.21,1.64C33.216,2.525 32.495,3.259 31.61,3.27C30.707,3.276 29.956,2.543 29.94,1.64C29.961,0.756 30.676,0.031 31.56,0L31.57,-0C32.47,-0 33.21,0.74 33.21,1.64Z" style="fill:rgb(112,86,66);fill-rule:nonzero;"/>
                        <path d="M2.75,10.63L3.26,8.29C3.83,8.881 4.26,9.591 4.52,10.37L2.75,10.63Z" style="fill:rgb(112,86,66);fill-rule:nonzero;"/>
                    </g>
                </g>
            </g>
        </g>
    </g>
</svg>
